<svg width="300" height="30" viewBox="0 0 300 30" fill="none" xmlns="http://www.w3.org/2000/svg">
<g clip-path="url(#clip0_586_2745)">
<path d="M276.917 28.7516C276.917 28.0858 277.458 27.5449 278.167 27.5449C278.875 27.5449 279.417 28.0858 279.417 28.7516C279.417 29.4173 278.875 29.9998 278.167 29.9998C277.458 29.9998 276.917 29.4589 276.917 28.7516ZM277.167 28.7516C277.167 29.2925 277.625 29.7502 278.208 29.7502C278.75 29.7502 279.208 29.3341 279.208 28.7516C279.208 28.2107 278.75 27.7946 278.208 27.7946C277.583 27.7946 277.167 28.2523 277.167 28.7516Z" fill="#E31837"/>
<path d="M278.792 29.459H278.542L278.125 28.8349H277.875V29.459H277.708V28.0859H278.333C278.458 28.0859 278.583 28.0859 278.667 28.1692C278.792 28.2108 278.834 28.3356 278.834 28.4604C278.834 28.7101 278.625 28.8349 278.375 28.8349L278.792 29.459ZM278.125 28.6685C278.333 28.6685 278.583 28.7101 278.583 28.4604C278.583 28.294 278.417 28.2524 278.25 28.2524H277.875V28.6685H278.125Z" fill="#E31837"/>
<path d="M272.208 29.9998C280.958 22.5102 293.25 15.2287 300 12.6073C298.958 11.9416 297.333 10.9846 295.5 9.94434C286.792 12.8153 276.625 19.1815 267.542 26.3798C269.083 27.5449 270.708 28.7515 272.208 29.9998Z" fill="#E31837"/>
<path d="M268.208 9.65323C266.916 9.0291 265.5 8.44657 264.416 7.94727C261.125 9.57001 256.833 12.0249 251.417 15.8946C252.583 16.5187 253.833 17.2677 255.167 18.0166C259.333 14.9376 263.541 12.0249 268.208 9.65323Z" fill="#012169"/>
<path d="M276 6.07449C274.417 5.20071 268.917 3.16187 265.125 2.28809C264 2.70417 262.417 3.32831 261.333 3.78601C262.708 4.16049 267.833 5.53358 272.208 7.73885C273.333 7.19793 274.917 6.53219 276 6.07449Z" fill="#E31837"/>
<path d="M257.375 5.53418C252.5 7.78106 247.375 10.8601 244.583 12.6493C245.583 13.107 246.583 13.4815 247.958 14.1472C254.125 9.98633 258.958 7.44819 260.875 6.61601C259.5 6.1167 258.209 5.78383 257.375 5.53418Z" fill="#012169"/>
<path d="M279.667 4.78502C280.792 4.41054 282.083 4.07767 283.208 3.7448C279.958 2.37171 275.875 0.915395 272.208 0C271.625 0.166436 269.875 0.624133 268.667 0.998613C269.917 1.37309 274.042 2.3301 279.667 4.78502ZM259.125 20.43C260.458 21.2205 261.875 22.3024 263.25 23.2178C272.375 16.1442 281.375 10.6935 291.25 7.61442C289.875 6.90707 288.667 6.28294 287.125 5.53398C281.208 7.0319 271.083 11.068 259.125 20.43Z" fill="#E31837"/>
<path d="M0 27.8367H6.66667C10.0417 27.8367 11.625 26.0892 11.625 23.6342C11.625 21.637 10.5833 20.3055 8.41667 19.8894C10.3333 19.4317 11.2083 18.2667 11.2083 16.5607C11.2083 14.3971 9.625 12.6495 6.25 12.6495H0.0416667V27.8367H0ZM5.79167 21.3874C7.04167 21.3874 7.91667 22.0115 7.91667 23.2598C7.91667 24.5912 7.08333 25.1322 5.79167 25.1322H3.625V21.3457H5.79167V21.3874ZM5.375 15.3125C6.625 15.3125 7.5 15.8534 7.5 17.1016C7.5 18.3499 6.66667 18.8908 5.375 18.8908H3.625V15.3125H5.375ZM25.0833 12.6079H21.3333L15.625 27.8367H19.4167L20.4583 24.6745H25.9583L27 27.8367H30.8333L25.0833 12.6079ZM23.2083 16.2695L25 21.8867H21.3333L23.2083 16.2695ZM49.8333 12.6079H46.375V22.8021L39.875 12.6079H36V27.8367H39.4583V17.6842L45.9583 27.8367H49.8333V12.6079ZM65.7917 27.8367L60.7917 20.0975V27.8367H57.0833V12.6079H60.7917V19.931L65.5417 12.6079H69.6667L64.6667 19.931L70.125 27.8367H65.7917ZM83.25 20.2223C83.25 23.2598 85.0833 25.1322 87.4583 25.1322C89.8333 25.1322 91.6667 23.2598 91.6667 20.2223C91.6667 17.1849 89.8333 15.3125 87.4583 15.3125C85.0833 15.3125 83.25 17.1849 83.25 20.2223ZM79.3333 20.2223C79.375 15.7702 82.5 12.275 87.4583 12.275C92.4167 12.275 95.5417 15.7702 95.5833 20.2223C95.5417 24.6745 92.4167 28.1696 87.4583 28.1696C82.5 28.1696 79.375 24.6745 79.3333 20.2223ZM100.667 27.8367H104.375V21.845H109.208V18.9324H104.375V15.5205H110.208L110.875 12.6079H100.667V27.8367ZM128.167 12.6079H124.417L118.708 27.8367H122.5L123.542 24.6745H129.042L130.083 27.8367H133.917L128.167 12.6079ZM126.292 16.2695L128.083 21.8867H124.417L126.292 16.2695ZM155.917 12.6079H151.583L147.625 20.8464L143.667 12.6079H139.333V27.8367H142.667V17.6426L147.583 27.8367L152.5 17.6426V27.8367H155.958L155.917 12.6079ZM163.125 27.8367H173.542V24.9241H166.833V21.5122H172.125V18.6828H166.833V15.5205H172.958L173.625 12.6079H163.125V27.8367ZM187.667 27.8367H191.708L187.917 21.3874C190 20.8048 191 19.3485 191 17.2265C191 14.4803 189.333 12.6495 185.583 12.6495H179.708V27.8783H183.333V21.8867H184.333L187.667 27.8367ZM184.875 15.4373C186.417 15.4373 187.208 16.103 187.208 17.3929C187.208 18.6828 186.417 19.3485 184.875 19.3485H183.292V15.4373H184.875ZM197.25 27.8367H200.958V12.6495H197.25V27.8367ZM219.208 23.7591C217.792 24.7577 216.542 25.0905 215.25 25.0905C212.417 25.0905 210.417 23.1349 210.417 20.2223C210.417 17.3097 212.375 15.3541 215.125 15.3541C216.375 15.3541 217.625 15.6869 219 16.6855V13.232C217.75 12.5247 216.292 12.2334 214.667 12.2334C209.625 12.2334 206.458 15.7285 206.417 20.1807C206.458 24.6745 209.542 28.128 214.667 28.128C216.375 28.128 217.833 27.8367 219.167 27.1294V23.7591H219.208ZM232.792 12.6079H229.042L223.333 27.8367H227.125L228.167 24.6745H233.667L234.708 27.8367H238.542L232.792 12.6079ZM230.917 16.2695L232.708 21.8867H229.042L230.917 16.2695Z" fill="#C8C7C7"/>
</g>
<defs>
<clipPath id="clip0_586_2745">
<rect width="300" height="30" fill="white"/>
</clipPath>
</defs>
</svg>
