<svg width="312" height="200" viewBox="0 0 312 200" fill="none" xmlns="http://www.w3.org/2000/svg">
<rect x="0.5" width="311" height="200" rx="18" fill="#111111"/>
<g opacity="0.5">
<path fill-rule="evenodd" clip-rule="evenodd" d="M166.667 175.998H164.361L164.25 175.998H161.931L161.833 175.999H159.617C159.55 176 159.483 176 159.417 176H143.467H142.5V175.999V175.999V175.999V175.998V175.998V175.997V175.24V175.033V175.032V175.032V175.032V175.032V175.031V165.866V163.332V160.798V158.267V155.732V153.199V150.665C142.5 136.674 153.32 125.332 166.667 125.332C180.013 125.332 190.833 136.674 190.833 150.665C190.833 164.656 180.013 175.998 166.667 175.998ZM143.688 160.995C144.72 155.626 149.237 151.632 154.583 151.632C160.68 151.632 165.7 156.827 165.7 163.332C165.7 169.068 161.798 173.785 156.695 174.82C159.752 173.118 161.833 169.747 161.833 165.866C161.833 160.269 157.505 155.732 152.167 155.732C148.512 155.732 145.331 157.859 143.688 160.995ZM143.467 165.866V175.031H152.324C157.015 174.943 160.867 170.915 160.867 165.866C160.867 160.76 156.929 156.699 152.167 156.699C147.404 156.699 143.467 160.76 143.467 165.866ZM170.533 160.798C170.533 167.634 165.968 173.293 159.926 174.696C163.92 172.629 166.667 168.317 166.667 163.332C166.667 156.337 161.257 150.666 154.583 150.666C149.883 150.666 145.81 153.479 143.812 157.587C145.199 151.247 150.608 146.564 157 146.564C164.432 146.564 170.533 152.893 170.533 160.798ZM143.943 154.179C145.683 146.871 151.98 141.5 159.417 141.5C168.183 141.5 175.367 148.963 175.367 158.267C175.367 166.213 170.125 172.817 163.134 174.575C168.076 172.153 171.5 166.894 171.5 160.798C171.5 152.403 165.008 145.598 157 145.598C151.255 145.598 146.29 149.1 143.943 154.179ZM161.833 136.432C153.347 136.432 146.157 142.5 144.074 150.786C146.766 144.731 152.624 140.534 159.417 140.534C168.759 140.534 176.333 148.473 176.333 158.267C176.333 165.463 172.244 171.658 166.369 174.438C174.296 172.32 180.2 164.778 180.2 155.732C180.2 145.03 171.934 136.432 161.833 136.432ZM144.21 147.386C146.636 138.127 154.718 131.366 164.25 131.366C175.686 131.366 185.033 141.097 185.033 153.199C185.033 163.352 178.454 171.836 169.581 174.306C176.402 171.175 181.166 164.037 181.166 155.732C181.166 144.539 172.511 135.466 161.833 135.466C153.994 135.466 147.245 140.357 144.21 147.386ZM190.075 150.665C190.075 162.557 182.043 172.435 171.41 174.734C179.904 171.631 186 163.161 186 153.199C186 140.607 176.262 130.399 164.25 130.399C154.827 130.399 146.804 136.68 143.783 145.467C146.057 134.37 155.463 126.09 166.667 126.09C179.561 126.09 190.075 137.059 190.075 150.665Z" fill="url(#paint0_linear_1470_1546)"/>
<path fill-rule="evenodd" clip-rule="evenodd" d="M215.001 175.998H212.695L212.584 175.998H210.265L210.167 175.999H207.951C207.884 176 207.817 176 207.751 176H191.801H190.834V175.999V175.999V175.999V175.998V175.998V175.997V175.24V175.033V175.032V175.032V175.032V175.032V175.031V165.866V163.332V160.798V158.267V155.732V153.199V150.665C190.834 136.674 201.654 125.332 215.001 125.332C228.347 125.332 239.167 136.674 239.167 150.665C239.167 164.656 228.347 175.998 215.001 175.998ZM192.022 160.995C193.054 155.626 197.571 151.632 202.917 151.632C209.014 151.632 214.034 156.827 214.034 163.332C214.034 169.068 210.132 173.785 205.029 174.82C208.086 173.118 210.167 169.747 210.167 165.866C210.167 160.269 205.839 155.732 200.501 155.732C196.846 155.732 193.665 157.859 192.022 160.995ZM191.801 165.866V175.031H200.658C205.349 174.943 209.201 170.915 209.201 165.866C209.201 160.76 205.263 156.699 200.501 156.699C195.738 156.699 191.801 160.76 191.801 165.866ZM218.867 160.798C218.867 167.634 214.302 173.293 208.26 174.696C212.254 172.629 215.001 168.317 215.001 163.332C215.001 156.337 209.591 150.666 202.917 150.666C198.217 150.666 194.144 153.479 192.146 157.587C193.533 151.247 198.941 146.564 205.334 146.564C212.766 146.564 218.867 152.893 218.867 160.798ZM192.277 154.179C194.017 146.871 200.314 141.5 207.751 141.5C216.517 141.5 223.7 148.963 223.7 158.267C223.7 166.213 218.459 172.817 211.468 174.575C216.41 172.153 219.834 166.894 219.834 160.798C219.834 152.403 213.342 145.598 205.334 145.598C199.589 145.598 194.624 149.1 192.277 154.179ZM210.167 136.432C201.681 136.432 194.491 142.5 192.408 150.786C195.1 144.731 200.958 140.534 207.751 140.534C217.093 140.534 224.667 148.473 224.667 158.267C224.667 165.463 220.578 171.658 214.703 174.438C222.629 172.32 228.534 164.778 228.534 155.732C228.534 145.03 220.268 136.432 210.167 136.432ZM192.544 147.386C194.97 138.127 203.052 131.366 212.584 131.366C224.02 131.366 233.367 141.097 233.367 153.199C233.367 163.352 226.788 171.836 217.915 174.306C224.736 171.175 229.5 164.037 229.5 155.732C229.5 144.539 220.845 135.466 210.167 135.466C202.328 135.466 195.579 140.357 192.544 147.386ZM238.409 150.665C238.409 162.557 230.377 172.435 219.744 174.734C228.238 171.631 234.334 163.161 234.334 153.199C234.334 140.607 224.596 130.399 212.584 130.399C203.161 130.399 195.138 136.68 192.117 145.467C194.391 134.37 203.797 126.09 215.001 126.09C227.895 126.09 238.409 137.059 238.409 150.665Z" fill="url(#paint1_linear_1470_1546)"/>
<path fill-rule="evenodd" clip-rule="evenodd" d="M263.333 175.998H261.027L260.916 175.998H258.597L258.499 175.999H256.283C256.216 176 256.149 176 256.083 176H240.133H239.166V175.999V175.999V175.999V175.998V175.998V175.997V175.24V175.033V175.032V175.032V175.032V175.032V175.031V165.866V163.332V160.798V158.267V155.732V153.199V150.665C239.166 136.674 249.986 125.332 263.333 125.332C276.679 125.332 287.499 136.674 287.499 150.665C287.499 164.656 276.679 175.998 263.333 175.998ZM240.354 160.995C241.386 155.626 245.903 151.632 251.249 151.632C257.346 151.632 262.366 156.827 262.366 163.332C262.366 169.068 258.464 173.785 253.361 174.82C256.418 173.118 258.499 169.747 258.499 165.866C258.499 160.269 254.171 155.732 248.833 155.732C245.178 155.732 241.997 157.859 240.354 160.995ZM240.133 165.866V175.031H248.99C253.681 174.943 257.533 170.915 257.533 165.866C257.533 160.76 253.595 156.699 248.833 156.699C244.07 156.699 240.133 160.76 240.133 165.866ZM267.199 160.798C267.199 167.634 262.634 173.293 256.592 174.696C260.586 172.629 263.333 168.317 263.333 163.332C263.333 156.337 257.923 150.666 251.249 150.666C246.549 150.666 242.476 153.479 240.478 157.587C241.865 151.247 247.274 146.564 253.666 146.564C261.098 146.564 267.199 152.893 267.199 160.798ZM240.609 154.179C242.349 146.871 248.646 141.5 256.083 141.5C264.849 141.5 272.033 148.963 272.033 158.267C272.033 166.213 266.791 172.817 259.8 174.575C264.742 172.153 268.166 166.894 268.166 160.798C268.166 152.403 261.674 145.598 253.666 145.598C247.921 145.598 242.956 149.1 240.609 154.179ZM258.499 136.432C250.013 136.432 242.823 142.5 240.74 150.786C243.432 144.731 249.29 140.534 256.083 140.534C265.425 140.534 272.999 148.473 272.999 158.267C272.999 165.463 268.91 171.658 263.035 174.438C270.962 172.32 276.866 164.778 276.866 155.732C276.866 145.03 268.6 136.432 258.499 136.432ZM240.876 147.386C243.302 138.127 251.384 131.366 260.916 131.366C272.352 131.366 281.699 141.097 281.699 153.199C281.699 163.352 275.12 171.836 266.247 174.306C273.068 171.175 277.832 164.037 277.832 155.732C277.832 144.539 269.177 135.466 258.499 135.466C250.66 135.466 243.911 140.357 240.876 147.386ZM286.741 150.665C286.741 162.557 278.709 172.435 268.076 174.734C276.57 171.631 282.666 163.161 282.666 153.199C282.666 140.607 272.928 130.399 260.916 130.399C251.493 130.399 243.47 136.68 240.449 145.467C242.723 134.37 252.129 126.09 263.333 126.09C276.227 126.09 286.741 137.059 286.741 150.665Z" fill="url(#paint2_linear_1470_1546)"/>
<path fill-rule="evenodd" clip-rule="evenodd" d="M166.667 125.333H164.35L164.25 125.333H161.931L161.833 125.334H159.617C159.55 125.334 159.484 125.335 159.417 125.335H143.467H142.5V125.334V125.334V125.334V125.333V125.333V125.332V124.575V124.368V124.367V124.367V124.367V124.367V124.366V115.201V112.667V110.133V107.602V105.067V102.534V100C142.5 86.009 153.32 74.667 166.667 74.667C180.013 74.667 190.833 86.009 190.833 100C190.833 113.991 180.013 125.333 166.667 125.333ZM143.688 110.33C144.72 104.961 149.237 100.967 154.583 100.967C160.68 100.967 165.7 106.162 165.7 112.667C165.7 118.403 161.798 123.119 156.695 124.155C159.752 122.453 161.833 119.082 161.833 115.201C161.833 109.604 157.505 105.067 152.167 105.067C148.512 105.067 145.331 107.193 143.688 110.33ZM143.467 115.201V124.366H152.324C157.015 124.278 160.867 120.25 160.867 115.201C160.867 110.095 156.929 106.034 152.167 106.034C147.404 106.034 143.467 110.095 143.467 115.201ZM170.533 110.133C170.533 116.969 165.968 122.628 159.926 124.031C163.92 121.964 166.667 117.652 166.667 112.667C166.667 105.672 161.257 100.001 154.583 100.001C149.883 100.001 145.81 102.814 143.812 106.922C145.199 100.582 150.608 95.8993 157 95.8993C164.432 95.8993 170.533 102.228 170.533 110.133ZM143.943 103.514C145.683 96.2055 151.98 90.8352 159.417 90.8352C168.183 90.8352 175.367 98.2984 175.367 107.602C175.367 115.548 170.125 122.152 163.134 123.909C168.076 121.487 171.5 116.229 171.5 110.133C171.5 101.738 165.008 94.9327 157 94.9327C151.255 94.9327 146.29 98.4349 143.943 103.514ZM161.833 85.7674C153.347 85.7674 146.157 91.835 144.074 100.121C146.766 94.0657 152.624 89.8685 159.417 89.8685C168.759 89.8685 176.333 97.8079 176.333 107.602C176.333 114.798 172.244 120.993 166.369 123.773C174.296 121.654 180.2 114.113 180.2 105.067C180.2 94.3647 171.934 85.7674 161.833 85.7674ZM144.21 96.7213C146.636 87.4619 154.718 80.7005 164.25 80.7005C175.686 80.7005 185.033 90.4321 185.033 102.534C185.033 112.687 178.454 121.171 169.581 123.641C176.402 120.51 181.166 113.372 181.166 105.067C181.166 93.8743 172.511 84.8007 161.833 84.8007C153.994 84.8007 147.245 89.6916 144.21 96.7213ZM190.075 100C190.075 111.893 182.043 121.77 171.409 124.069C179.904 120.966 186 112.496 186 102.534C186 89.9416 176.262 79.7338 164.25 79.7338C154.827 79.7338 146.804 86.0152 143.783 94.8014C146.057 83.7054 155.463 75.4254 166.667 75.4254C179.561 75.4254 190.075 86.3938 190.075 100Z" fill="url(#paint3_linear_1470_1546)"/>
<path fill-rule="evenodd" clip-rule="evenodd" d="M215.001 125.333H212.684L212.584 125.333H210.265L210.167 125.334H207.951C207.884 125.334 207.818 125.335 207.751 125.335H191.801H190.834V125.334V125.334V125.334V125.333V125.333V125.332V124.575V124.368V124.367V124.367V124.367V124.367V124.366V115.201V112.667V110.133V107.602V105.067V102.534V100C190.834 86.009 201.654 74.667 215.001 74.667C228.347 74.667 239.167 86.009 239.167 100C239.167 113.991 228.347 125.333 215.001 125.333ZM192.022 110.33C193.054 104.961 197.571 100.967 202.917 100.967C209.014 100.967 214.034 106.162 214.034 112.667C214.034 118.403 210.132 123.119 205.029 124.155C208.086 122.453 210.167 119.082 210.167 115.201C210.167 109.604 205.839 105.067 200.501 105.067C196.846 105.067 193.665 107.193 192.022 110.33ZM191.801 115.201V124.366H200.658C205.349 124.278 209.201 120.25 209.201 115.201C209.201 110.095 205.263 106.034 200.501 106.034C195.738 106.034 191.801 110.095 191.801 115.201ZM218.867 110.133C218.867 116.969 214.302 122.628 208.26 124.031C212.254 121.964 215.001 117.652 215.001 112.667C215.001 105.672 209.591 100.001 202.917 100.001C198.217 100.001 194.144 102.814 192.146 106.922C193.533 100.582 198.941 95.8993 205.334 95.8993C212.766 95.8993 218.867 102.228 218.867 110.133ZM192.277 103.514C194.017 96.2055 200.314 90.8352 207.751 90.8352C216.517 90.8352 223.7 98.2984 223.7 107.602C223.7 115.548 218.459 122.152 211.468 123.909C216.41 121.487 219.834 116.229 219.834 110.133C219.834 101.738 213.342 94.9327 205.334 94.9327C199.589 94.9327 194.624 98.4349 192.277 103.514ZM210.167 85.7674C201.681 85.7674 194.491 91.835 192.408 100.121C195.1 94.0657 200.958 89.8685 207.751 89.8685C217.093 89.8685 224.667 97.8079 224.667 107.602C224.667 114.798 220.578 120.993 214.703 123.773C222.63 121.654 228.534 114.113 228.534 105.067C228.534 94.3647 220.268 85.7674 210.167 85.7674ZM192.544 96.7213C194.97 87.4619 203.052 80.7005 212.584 80.7005C224.02 80.7005 233.367 90.4321 233.367 102.534C233.367 112.687 226.788 121.171 217.915 123.641C224.736 120.51 229.5 113.372 229.5 105.067C229.5 93.8743 220.845 84.8007 210.167 84.8007C202.328 84.8007 195.579 89.6916 192.544 96.7213ZM238.409 100C238.409 111.893 230.377 121.77 219.743 124.069C228.238 120.966 234.334 112.496 234.334 102.534C234.334 89.9416 224.596 79.7338 212.584 79.7338C203.161 79.7338 195.138 86.0152 192.117 94.8014C194.391 83.7054 203.797 75.4254 215.001 75.4254C227.895 75.4254 238.409 86.3938 238.409 100Z" fill="url(#paint4_linear_1470_1546)"/>
<path fill-rule="evenodd" clip-rule="evenodd" d="M263.333 125.333H261.029L260.916 125.333H258.598L258.5 125.334H256.278C256.213 125.334 256.148 125.335 256.083 125.335H240.133H239.167V125.334V125.334V125.334V125.333V125.333V125.332V124.575V124.368V124.367V124.367V124.367V124.367V124.366V115.201V112.667V110.133V107.602V105.067V102.534V100C239.167 86.009 249.986 74.667 263.333 74.667C276.68 74.667 287.5 86.009 287.5 100C287.5 113.991 276.68 125.333 263.333 125.333ZM240.354 110.33C241.386 104.961 245.904 100.967 251.25 100.967C257.347 100.967 262.366 106.162 262.366 112.667C262.366 118.403 258.464 123.119 253.362 124.155C256.418 122.453 258.5 119.082 258.5 115.201C258.5 109.604 254.172 105.067 248.833 105.067C245.178 105.067 241.997 107.193 240.354 110.33ZM240.133 115.201V124.366H248.987C253.68 124.28 257.533 120.252 257.533 115.201C257.533 110.095 253.596 106.034 248.833 106.034C244.071 106.034 240.133 110.095 240.133 115.201ZM267.2 110.133C267.2 116.969 262.635 122.628 256.593 124.031C260.586 121.964 263.333 117.652 263.333 112.667C263.333 105.672 257.923 100.001 251.25 100.001C246.55 100.001 242.476 102.814 240.478 106.922C241.866 100.582 247.274 95.8994 253.666 95.8994C261.098 95.8994 267.2 102.228 267.2 110.133ZM240.61 103.514C242.349 96.2056 248.647 90.8352 256.083 90.8352C264.85 90.8352 272.033 98.2984 272.033 107.602C272.033 115.548 266.792 122.152 259.8 123.909C264.742 121.487 268.166 116.229 268.166 110.133C268.166 101.738 261.675 94.9327 253.666 94.9327C247.922 94.9327 242.957 98.435 240.61 103.514ZM258.5 85.7674C250.014 85.7674 242.824 91.835 240.741 100.121C243.432 94.0656 249.29 89.8685 256.083 89.8685C265.426 89.8685 273 97.8079 273 107.602C273 114.798 268.91 120.993 263.035 123.773C270.962 121.655 276.866 114.113 276.866 105.067C276.866 94.3648 268.601 85.7674 258.5 85.7674ZM240.877 96.7214C243.303 87.4619 251.384 80.7006 260.916 80.7006C272.352 80.7006 281.7 90.4321 281.7 102.534C281.7 112.687 275.12 121.171 266.248 123.641C273.068 120.51 277.833 113.372 277.833 105.067C277.833 93.8744 269.177 84.8008 258.5 84.8008C250.661 84.8008 243.911 89.6917 240.877 96.7214ZM286.741 100C286.741 111.892 278.71 121.77 268.076 124.069C276.571 120.966 282.666 112.496 282.666 102.534C282.666 89.9417 272.929 79.7339 260.916 79.7339C251.494 79.7339 243.47 86.0153 240.449 94.8015C242.724 83.7054 252.13 75.4254 263.333 75.4254C276.228 75.4254 286.741 86.3938 286.741 100Z" fill="url(#paint5_linear_1470_1546)"/>
<path fill-rule="evenodd" clip-rule="evenodd" d="M166.667 74.6661H164.356L164.25 74.6664H161.931L161.833 74.6667H159.617C159.55 74.6675 159.484 74.6679 159.417 74.6679H143.467H142.5V74.6669V74.6667V74.6666V74.6664V74.6661V74.6654V73.9077V73.7012V73.7002V73.7V73.7V73.6997V73.6987V64.5336V62.0001V59.4656V56.9347V54.4002V51.8666V49.3331C142.5 35.342 153.32 24 166.667 24C180.013 24 190.833 35.342 190.833 49.3331C190.833 63.3241 180.013 74.6661 166.667 74.6661ZM143.688 59.6631C144.72 54.294 149.237 50.3002 154.583 50.3002C160.68 50.3002 165.7 55.495 165.7 62.0001C165.7 67.7356 161.798 72.4525 156.695 73.4883C159.752 71.7861 161.833 68.4147 161.833 64.5336C161.833 58.9372 157.505 54.4004 152.167 54.4004C148.512 54.4004 145.331 56.5265 143.688 59.6631ZM143.467 64.5336V73.6987H152.324C157.015 73.6107 160.867 69.5834 160.867 64.5336C160.867 59.4276 156.929 55.3671 152.167 55.3671C147.404 55.3671 143.467 59.4276 143.467 64.5336ZM170.533 59.4656C170.533 66.3024 165.968 71.9606 159.926 73.3642C163.92 71.297 166.667 66.9848 166.667 62.0001C166.667 55.0045 161.257 49.3335 154.583 49.3335C149.883 49.3335 145.81 52.1468 143.812 56.2547C145.199 49.9149 150.608 45.2324 157 45.2324C164.432 45.2324 170.533 51.5613 170.533 59.4656ZM143.943 52.8468C145.683 45.5385 151.98 40.1682 159.417 40.1682C168.183 40.1682 175.367 47.6314 175.367 56.9347C175.367 64.8813 170.125 71.4853 163.134 73.2425C168.076 70.8205 171.5 65.5622 171.5 59.4656C171.5 51.0709 165.008 44.2657 157 44.2657C151.255 44.2657 146.29 47.768 143.943 52.8468ZM161.833 35.1004C153.347 35.1004 146.157 41.168 144.074 49.454C146.766 43.3987 152.624 39.2016 159.417 39.2016C168.759 39.2016 176.333 47.141 176.333 56.9347C176.333 64.1309 172.244 70.3259 166.369 73.1059C174.296 70.9875 180.2 63.4457 180.2 54.4002C180.2 43.6978 171.934 35.1004 161.833 35.1004ZM144.21 46.0543C146.636 36.7949 154.718 30.0335 164.25 30.0335C175.686 30.0335 185.033 39.7651 185.033 51.8666C185.033 62.0196 178.454 70.5044 169.581 72.9736C176.402 69.8427 181.166 62.7048 181.166 54.4002C181.166 43.2074 172.511 34.1337 161.833 34.1337C153.994 34.1337 147.245 39.0247 144.21 46.0543ZM190.075 49.3331C190.075 61.2255 182.043 71.1027 171.41 73.4023C179.904 70.2992 186 61.8291 186 51.8666C186 39.2747 176.262 29.0669 164.25 29.0669C154.827 29.0669 146.804 35.3482 143.783 44.1345C146.057 33.0384 155.463 24.7585 166.667 24.7585C179.561 24.7585 190.075 35.7268 190.075 49.3331Z" fill="url(#paint6_linear_1470_1546)"/>
<path fill-rule="evenodd" clip-rule="evenodd" d="M215.001 74.6661H212.69L212.584 74.6664H210.265L210.167 74.6667H207.951C207.884 74.6675 207.818 74.6679 207.751 74.6679H191.801H190.834V74.6669V74.6667V74.6666V74.6664V74.6661V74.6654V73.9077V73.7012V73.7002V73.7V73.7V73.6997V73.6987V64.5336V62.0001V59.4656V56.9347V54.4002V51.8666V49.3331C190.834 35.342 201.654 24 215.001 24C228.347 24 239.167 35.342 239.167 49.3331C239.167 63.3241 228.347 74.6661 215.001 74.6661ZM192.022 59.6631C193.054 54.294 197.571 50.3002 202.917 50.3002C209.014 50.3002 214.034 55.495 214.034 62.0001C214.034 67.7356 210.132 72.4525 205.029 73.4883C208.086 71.7861 210.167 68.4147 210.167 64.5336C210.167 58.9372 205.839 54.4004 200.501 54.4004C196.846 54.4004 193.665 56.5265 192.022 59.6631ZM191.801 64.5336V73.6987H200.658C205.349 73.6107 209.201 69.5834 209.201 64.5336C209.201 59.4276 205.263 55.3671 200.501 55.3671C195.738 55.3671 191.801 59.4276 191.801 64.5336ZM218.867 59.4656C218.867 66.3024 214.302 71.9606 208.26 73.3642C212.254 71.297 215.001 66.9848 215.001 62.0001C215.001 55.0045 209.591 49.3335 202.917 49.3335C198.217 49.3335 194.144 52.1468 192.146 56.2547C193.533 49.9149 198.941 45.2324 205.334 45.2324C212.766 45.2324 218.867 51.5613 218.867 59.4656ZM192.277 52.8468C194.017 45.5385 200.314 40.1682 207.751 40.1682C216.517 40.1682 223.7 47.6314 223.7 56.9347C223.7 64.8813 218.459 71.4853 211.468 73.2425C216.41 70.8205 219.834 65.5622 219.834 59.4656C219.834 51.0709 213.342 44.2657 205.334 44.2657C199.589 44.2657 194.624 47.768 192.277 52.8468ZM210.167 35.1004C201.681 35.1004 194.491 41.168 192.408 49.454C195.1 43.3987 200.958 39.2016 207.751 39.2016C217.093 39.2016 224.667 47.141 224.667 56.9347C224.667 64.1309 220.578 70.3259 214.703 73.1059C222.629 70.9875 228.534 63.4457 228.534 54.4002C228.534 43.6978 220.268 35.1004 210.167 35.1004ZM192.544 46.0543C194.97 36.7949 203.052 30.0335 212.584 30.0335C224.02 30.0335 233.367 39.7651 233.367 51.8666C233.367 62.0196 226.788 70.5044 217.915 72.9736C224.736 69.8427 229.5 62.7048 229.5 54.4002C229.5 43.2074 220.845 34.1337 210.167 34.1337C202.328 34.1337 195.579 39.0247 192.544 46.0543ZM238.409 49.3331C238.409 61.2255 230.377 71.1027 219.744 73.4023C228.238 70.2992 234.334 61.8291 234.334 51.8666C234.334 39.2747 224.596 29.0669 212.584 29.0669C203.161 29.0669 195.138 35.3482 192.117 44.1345C194.391 33.0384 203.797 24.7585 215.001 24.7585C227.895 24.7585 238.409 35.7268 238.409 49.3331Z" fill="url(#paint7_linear_1470_1546)"/>
<path fill-rule="evenodd" clip-rule="evenodd" d="M263.333 74.6661H261.023L260.916 74.6664H258.597L258.5 74.6667H256.284C256.217 74.6675 256.15 74.6679 256.083 74.6679H240.133H239.167V74.6669V74.6667V74.6666V74.6664V74.6661V74.6654V73.9077V73.7012V73.7002V73.7V73.7V73.6997V73.6987V64.5336V62.0001V59.4656V56.9347V54.4002V51.8666V49.3331C239.167 35.342 249.986 24 263.333 24C276.68 24 287.5 35.342 287.5 49.3331C287.5 63.3241 276.68 74.6661 263.333 74.6661ZM240.354 59.6631C241.386 54.294 245.904 50.3002 251.25 50.3002C257.347 50.3002 262.366 55.495 262.366 62.0001C262.366 67.7356 258.464 72.4525 253.362 73.4883C256.418 71.7861 258.5 68.4147 258.5 64.5336C258.5 58.9372 254.172 54.4004 248.833 54.4004C245.178 54.4004 241.997 56.5265 240.354 59.6631ZM240.133 64.5336V73.6987H248.99C253.682 73.6107 257.533 69.5834 257.533 64.5336C257.533 59.4276 253.596 55.3671 248.833 55.3671C244.071 55.3671 240.133 59.4276 240.133 64.5336ZM267.2 59.4656C267.2 66.3024 262.635 71.9606 256.593 73.3642C260.586 71.297 263.333 66.9848 263.333 62.0001C263.333 55.0045 257.923 49.3335 251.25 49.3335C246.549 49.3335 242.476 52.1468 240.478 56.2547C241.866 49.9149 247.274 45.2324 253.666 45.2324C261.098 45.2324 267.2 51.5613 267.2 59.4656ZM240.61 52.8468C242.349 45.5385 248.647 40.1682 256.083 40.1682C264.85 40.1682 272.033 47.6314 272.033 56.9347C272.033 64.8813 266.792 71.4853 259.8 73.2425C264.742 70.8205 268.166 65.5622 268.166 59.4656C268.166 51.0709 261.675 44.2657 253.666 44.2657C247.922 44.2657 242.957 47.768 240.61 52.8468ZM258.5 35.1004C250.014 35.1004 242.824 41.168 240.741 49.454C243.432 43.3987 249.29 39.2016 256.083 39.2016C265.426 39.2016 273 47.141 273 56.9347C273 64.1309 268.911 70.3259 263.035 73.1059C270.962 70.9875 276.866 63.4457 276.866 54.4002C276.866 43.6978 268.601 35.1004 258.5 35.1004ZM240.877 46.0543C243.303 36.7949 251.384 30.0335 260.916 30.0335C272.352 30.0335 281.7 39.7651 281.7 51.8666C281.7 62.0196 275.12 70.5044 266.248 72.9736C273.068 69.8427 277.833 62.7048 277.833 54.4002C277.833 43.2074 269.177 34.1337 258.5 34.1337C250.661 34.1337 243.911 39.0247 240.877 46.0543ZM286.741 49.3331C286.741 61.2255 278.709 71.1027 268.076 73.4023C276.571 70.2992 282.666 61.8291 282.666 51.8666C282.666 39.2747 272.929 29.0669 260.916 29.0669C251.494 29.0669 243.47 35.3482 240.449 44.1345C242.724 33.0384 252.13 24.7585 263.333 24.7585C276.228 24.7585 286.741 35.7268 286.741 49.3331Z" fill="url(#paint8_linear_1470_1546)"/>
</g>
<path opacity="0.8" d="M25.376 173V164.54H30.62V165.38H26.36V168.344H30.02V169.184H26.36V172.16H30.62V173H25.376ZM31.6371 173L33.8811 170.156V169.868L31.6371 167.036H32.8011L34.6131 169.436L36.4251 167.036H37.5891L35.3451 169.868V170.156L37.5891 173H36.4251L34.6131 170.588L32.8011 173H31.6371ZM38.9463 167.036H39.9303V167.912L39.7743 168.596H40.0503C40.1863 168.1 40.4583 167.696 40.8663 167.384C41.2743 167.072 41.8063 166.916 42.4623 166.916C43.3103 166.916 43.9943 167.208 44.5143 167.792C45.0423 168.376 45.3063 169.12 45.3063 170.024C45.3063 170.92 45.0423 171.66 44.5143 172.244C43.9943 172.828 43.3103 173.12 42.4623 173.12C41.8143 173.12 41.2823 172.968 40.8663 172.664C40.4583 172.352 40.1863 171.948 40.0503 171.452H39.7743L39.9303 172.124V175.184H38.9463V167.036ZM39.9303 170.024C39.9303 170.776 40.1383 171.34 40.5543 171.716C40.9783 172.092 41.5183 172.28 42.1743 172.28C42.8223 172.28 43.3423 172.092 43.7343 171.716C44.1263 171.34 44.3223 170.776 44.3223 170.024C44.3223 169.272 44.1263 168.708 43.7343 168.332C43.3423 167.948 42.8223 167.756 42.1743 167.756C41.5183 167.756 40.9783 167.944 40.5543 168.32C40.1383 168.696 39.9303 169.264 39.9303 170.024Z" fill="white"/>
<path d="M54.976 164.42C52.492 164.42 51.088 166.22 51.088 168.764C51.088 171.32 52.492 173.12 54.976 173.12C57.448 173.12 58.852 171.32 58.852 168.764C58.852 166.22 57.448 164.42 54.976 164.42ZM54.976 165.764C55.552 165.764 56.032 165.932 56.404 166.232L52.852 170.252C52.696 169.832 52.624 169.328 52.624 168.764C52.624 166.904 53.464 165.764 54.976 165.764ZM54.976 171.776C54.388 171.776 53.908 171.608 53.536 171.296L57.1 167.288C57.244 167.708 57.316 168.2 57.316 168.764C57.316 170.636 56.488 171.776 54.976 171.776ZM67.6874 168.62C67.6874 165.776 66.2114 164.42 64.0034 164.42C61.7234 164.42 60.3434 165.74 60.3434 167.6C60.3434 169.472 61.5434 170.684 63.5594 170.684C65.1194 170.684 66.3674 169.844 66.5594 168.5H66.9554L66.5594 169.424C66.2474 171.044 65.4194 171.932 63.6794 171.776L61.0034 171.536V172.88L63.6794 173.12C66.5834 173.384 67.6874 171.308 67.6874 168.62ZM66.1394 167.48C66.1394 168.656 65.3354 169.34 63.8834 169.34C62.5514 169.34 61.8914 168.728 61.8914 167.6C61.8914 166.34 62.6114 165.764 64.0034 165.764C65.4314 165.764 66.1394 166.616 66.1394 167.48ZM73.3872 163.232L69.4872 173.888L70.6032 174.308L74.5032 163.652L73.3872 163.232ZM76.187 168.5H77.735C77.735 166.52 78.575 165.764 80.063 165.764C81.239 165.764 81.743 166.364 81.743 167.204C81.743 169.568 77.171 170.18 76.307 170.3V173H83.291V171.656H77.711L76.715 171.932V171.536C80.483 170.876 83.291 170.072 83.291 167.264C83.291 165.416 81.959 164.42 80.039 164.42C77.903 164.42 76.187 165.572 76.187 168.5ZM91.4702 170.048H90.4742V167.696H88.9382V170.048H85.8902L84.8942 170.336V169.928C87.8342 169.052 89.3702 167.168 89.5742 164.54H88.0382C87.8462 166.676 86.4662 168.08 84.4862 168.596V171.392H88.9382V173H90.4742V171.392H91.4702V170.048Z" fill="white"/>
<path d="M25.38 91.56C25.38 95.352 27.348 97.16 30.292 97.16C33.332 97.16 35.172 95.4 35.172 92.92C35.172 90.424 33.572 88.808 30.884 88.808C28.804 88.808 27.14 89.928 26.884 91.72H26.356L26.884 90.488C27.3 88.328 28.404 87.144 30.724 87.352L34.292 87.672V85.88L30.724 85.56C26.852 85.208 25.38 87.976 25.38 91.56ZM27.444 93.08C27.444 91.512 28.516 90.6 30.452 90.6C32.228 90.6 33.108 91.416 33.108 92.92C33.108 94.6 32.148 95.368 30.292 95.368C28.388 95.368 27.444 94.232 27.444 93.08ZM42.6624 85.56C39.3504 85.56 37.4784 87.96 37.4784 91.352C37.4784 94.76 39.3504 97.16 42.6624 97.16C45.9584 97.16 47.8304 94.76 47.8304 91.352C47.8304 87.96 45.9584 85.56 42.6624 85.56ZM42.6624 87.352C43.4304 87.352 44.0704 87.576 44.5664 87.976L39.8304 93.336C39.6224 92.776 39.5264 92.104 39.5264 91.352C39.5264 88.872 40.6464 87.352 42.6624 87.352ZM42.6624 95.368C41.8784 95.368 41.2384 95.144 40.7424 94.728L45.4944 89.384C45.6864 89.944 45.7824 90.6 45.7824 91.352C45.7824 93.848 44.6784 95.368 42.6624 95.368ZM50.2014 92.696C50.2014 95.976 52.3134 97.16 55.2094 97.16C57.9134 97.16 59.8174 96.056 59.8174 93.912C59.8174 92.024 58.6174 91.64 57.1774 91.4V90.872C58.6174 90.632 59.6574 90.152 59.6574 88.584C59.6574 86.664 57.9134 85.56 55.2094 85.56C52.3134 85.56 50.3614 86.744 50.3614 89.496H52.4254C52.4254 87.976 53.1134 87.352 55.2094 87.352C57.0174 87.352 57.5934 87.912 57.5934 88.856C57.5934 89.784 57.0654 90.248 55.9454 90.248H54.3774V92.04H55.9454C57.0654 92.04 57.7534 92.52 57.7534 93.656C57.7534 94.808 57.0174 95.368 55.2094 95.368C53.1134 95.368 52.2654 94.744 52.2654 92.696H50.2014ZM63.601 97H65.761C65.761 92.68 67.217 90.328 70.593 88.824V85.72H62.017V87.512H68.833L70.049 87.144V87.672C65.969 89.208 63.601 92.12 63.601 97ZM88.2952 91.16C88.2952 87.368 86.3272 85.56 83.3832 85.56C80.3432 85.56 78.5032 87.32 78.5032 89.8C78.5032 92.296 80.1032 93.912 82.7912 93.912C84.8712 93.912 86.5352 92.792 86.7912 91H87.3193L86.7912 92.232C86.3752 94.392 85.2712 95.576 82.9512 95.368L79.3832 95.048V96.84L82.9512 97.16C86.8232 97.512 88.2952 94.744 88.2952 91.16ZM86.2312 89.64C86.2312 91.208 85.1592 92.12 83.2232 92.12C81.4472 92.12 80.5672 91.304 80.5672 89.8C80.5672 88.12 81.5272 87.352 83.3832 87.352C85.2872 87.352 86.2312 88.488 86.2312 89.64ZM100.443 91.16C100.443 87.368 98.4748 85.56 95.5308 85.56C92.4908 85.56 90.6508 87.32 90.6508 89.8C90.6508 92.296 92.2508 93.912 94.9388 93.912C97.0188 93.912 98.6828 92.792 98.9388 91H99.4668L98.9388 92.232C98.5228 94.392 97.4188 95.576 95.0988 95.368L91.5308 95.048V96.84L95.0988 97.16C98.9708 97.512 100.443 94.744 100.443 91.16ZM98.3788 89.64C98.3788 91.208 97.3068 92.12 95.3708 92.12C93.5948 92.12 92.7148 91.304 92.7148 89.8C92.7148 88.12 93.6748 87.352 95.5308 87.352C97.4348 87.352 98.3788 88.488 98.3788 89.64ZM103.425 97H105.585C105.585 92.68 107.041 90.328 110.417 88.824V85.72H101.841V87.512H108.657L109.873 87.144V87.672C105.793 89.208 103.425 92.12 103.425 97ZM112.073 92.904C112.073 95.816 114.185 97.16 117.129 97.16C120.025 97.16 121.945 95.736 121.945 92.792C121.945 90.264 120.441 88.808 118.361 88.808C116.761 88.808 115.577 89.608 114.969 91.064L114.521 90.808L114.905 89.576V87.512H121.081V85.72H112.841V90.584L115.241 91.928C115.849 91.112 116.649 90.6 117.785 90.6C119.209 90.6 119.881 91.4 119.881 92.808C119.881 94.488 119.049 95.368 117.129 95.368C115.033 95.368 114.121 94.52 114.121 92.904H112.073ZM34.964 115.16C34.964 111.368 32.996 109.56 30.052 109.56C27.012 109.56 25.172 111.32 25.172 113.8C25.172 116.296 26.772 117.912 29.46 117.912C31.54 117.912 33.204 116.792 33.46 115H33.988L33.46 116.232C33.044 118.392 31.94 119.576 29.62 119.368L26.052 119.048V120.84L29.62 121.16C33.492 121.512 34.964 118.744 34.964 115.16ZM32.9 113.64C32.9 115.208 31.828 116.12 29.892 116.12C28.116 116.12 27.236 115.304 27.236 113.8C27.236 112.12 28.196 111.352 30.052 111.352C31.956 111.352 32.9 112.488 32.9 113.64ZM37.3221 116.904C37.3221 119.816 39.4341 121.16 42.3781 121.16C45.2741 121.16 47.1941 119.736 47.1941 116.792C47.1941 114.264 45.6901 112.808 43.6101 112.808C42.0101 112.808 40.8261 113.608 40.2181 115.064L39.7701 114.808L40.1541 113.576V111.512H46.3301V109.72H38.0901V114.584L40.4901 115.928C41.0981 115.112 41.8981 114.6 43.0341 114.6C44.4581 114.6 45.1301 115.4 45.1301 116.808C45.1301 118.488 44.2981 119.368 42.3781 119.368C40.2821 119.368 39.3701 118.52 39.3701 116.904H37.3221ZM59.1184 115.16C59.1184 111.368 57.1504 109.56 54.2064 109.56C51.1664 109.56 49.3264 111.32 49.3264 113.8C49.3264 116.296 50.9264 117.912 53.6144 117.912C55.6944 117.912 57.3584 116.792 57.6144 115H58.1424L57.6144 116.232C57.1984 118.392 56.0944 119.576 53.7744 119.368L50.2064 119.048V120.84L53.7744 121.16C57.6464 121.512 59.1184 118.744 59.1184 115.16ZM57.0544 113.64C57.0544 115.208 55.9824 116.12 54.0464 116.12C52.2704 116.12 51.3904 115.304 51.3904 113.8C51.3904 112.12 52.3504 111.352 54.2064 111.352C56.1104 111.352 57.0544 112.488 57.0544 113.64ZM61.1576 117.864C61.1576 120.056 63.0776 121.16 66.1016 121.16C69.1096 121.16 71.0456 120.056 71.0456 117.864C71.0456 116.136 69.6856 115.352 67.9736 115.064V114.52C69.2376 114.312 70.4056 113.768 70.4056 112.2C70.4056 110.232 68.3096 109.56 66.1016 109.56C63.8776 109.56 61.7976 110.232 61.7976 112.2C61.7976 113.768 62.9496 114.312 64.2136 114.52V115.064C62.5016 115.352 61.1576 116.024 61.1576 117.864ZM63.8616 112.632C63.8616 111.688 64.6296 111.352 66.1016 111.352C67.5736 111.352 68.3416 111.688 68.3416 112.632C68.3416 113.592 67.5736 113.912 66.1016 113.912C64.6296 113.912 63.8616 113.592 63.8616 112.632ZM63.2216 117.544C63.2216 116.392 64.0856 115.704 66.1016 115.704C68.1016 115.704 68.9816 116.392 68.9816 117.544C68.9816 118.712 68.1016 119.368 66.1016 119.368C64.0856 119.368 63.2216 118.712 63.2216 117.544ZM78.9564 116.696C78.9564 119.976 81.0684 121.16 83.9644 121.16C86.6684 121.16 88.5724 120.056 88.5724 117.912C88.5724 116.024 87.3724 115.64 85.9324 115.4V114.872C87.3724 114.632 88.4124 114.152 88.4124 112.584C88.4124 110.664 86.6684 109.56 83.9644 109.56C81.0684 109.56 79.1164 110.744 79.1164 113.496H81.1804C81.1804 111.976 81.8684 111.352 83.9644 111.352C85.7724 111.352 86.3484 111.912 86.3484 112.856C86.3484 113.784 85.8204 114.248 84.7004 114.248H83.1324V116.04H84.7004C85.8204 116.04 86.5084 116.52 86.5084 117.656C86.5084 118.808 85.7724 119.368 83.9644 119.368C81.8684 119.368 81.0204 118.744 81.0204 116.696H78.9564ZM96.3374 109.56C93.0254 109.56 91.1534 111.96 91.1534 115.352C91.1534 118.76 93.0254 121.16 96.3374 121.16C99.6334 121.16 101.505 118.76 101.505 115.352C101.505 111.96 99.6334 109.56 96.3374 109.56ZM96.3374 111.352C97.1054 111.352 97.7454 111.576 98.2414 111.976L93.5054 117.336C93.2974 116.776 93.2014 116.104 93.2014 115.352C93.2014 112.872 94.3214 111.352 96.3374 111.352ZM96.3374 119.368C95.5534 119.368 94.9134 119.144 94.4174 118.728L99.1694 113.384C99.3614 113.944 99.4574 114.6 99.4574 115.352C99.4574 117.848 98.3534 119.368 96.3374 119.368ZM113.606 115.16C113.606 111.368 111.638 109.56 108.694 109.56C105.654 109.56 103.814 111.32 103.814 113.8C103.814 116.296 105.414 117.912 108.102 117.912C110.182 117.912 111.846 116.792 112.102 115H112.63L112.102 116.232C111.686 118.392 110.582 119.576 108.262 119.368L104.694 119.048V120.84L108.262 121.16C112.134 121.512 113.606 118.744 113.606 115.16ZM111.542 113.64C111.542 115.208 110.47 116.12 108.534 116.12C106.758 116.12 105.878 115.304 105.878 113.8C105.878 112.12 106.838 111.352 108.694 111.352C110.598 111.352 111.542 112.488 111.542 113.64ZM121.304 109.56C117.992 109.56 116.12 111.96 116.12 115.352C116.12 118.76 117.992 121.16 121.304 121.16C124.6 121.16 126.472 118.76 126.472 115.352C126.472 111.96 124.6 109.56 121.304 109.56ZM121.304 111.352C122.072 111.352 122.712 111.576 123.208 111.976L118.472 117.336C118.264 116.776 118.168 116.104 118.168 115.352C118.168 112.872 119.288 111.352 121.304 111.352ZM121.304 119.368C120.52 119.368 119.88 119.144 119.384 118.728L124.136 113.384C124.328 113.944 124.424 114.6 124.424 115.352C124.424 117.848 123.32 119.368 121.304 119.368Z" fill="white"/>
<path d="M57.9624 34.0624C51.6842 24.0272 36.8296 23.2529 29.332 32.3412C26.7793 35.4358 24.9903 39.1377 24.5 43.134C24.5 43.134 25.2585 42.628 25.7133 42.4032C25.5682 43.3304 25.4957 44.2675 25.4963 45.2059C25.4963 54.0637 32.5422 62.1776 41.8304 61.9964C36.3916 56.8367 32.9339 48.5547 35.8258 41.3179C36.583 39.4233 37.5359 38.1676 39.1654 36.9332C41.4822 35.1781 45.08 34.9017 47.5595 36.4855C48.7426 37.2329 49.5938 38.4016 49.9386 39.7523C50.2834 41.103 50.0959 42.5337 49.4144 43.7515C49.6702 43.7168 51.6719 49.7718 50.0786 47.9593C48.4473 46.1044 46.0777 45.019 43.8518 44.0498C43.093 43.7193 42.4998 43.2737 41.8302 42.8205C41.8095 43.2237 41.7138 43.628 41.691 44.0328C41.4612 48.2202 42.6538 51.799 46.6603 53.7158C51.7005 56.1272 57.1208 53.3282 59.2644 48.4944C61.408 43.6607 60.6274 38.3225 57.9624 34.0624ZM41.1318 33.4253C41.1273 33.4295 41.1225 33.4333 41.1175 33.4369C40.9931 33.541 40.8494 33.6198 40.6944 33.6686C40.5394 33.7175 40.3762 33.7355 40.2142 33.7217C40.0522 33.7078 39.8946 33.6624 39.7502 33.588C39.6059 33.5136 39.4777 33.4116 39.373 33.2879C39.3687 33.2824 39.3639 33.2773 39.3588 33.2725C39.2058 33.0914 39.1077 32.8708 39.0761 32.6363C39.0445 32.4019 39.0807 32.1634 39.1805 31.9486C39.2802 31.7339 39.4394 31.5518 39.6394 31.4237C39.8394 31.2955 40.0719 31.2266 40.3099 31.225C40.493 31.2268 40.6736 31.2676 40.8394 31.3447C41.0053 31.4219 41.1526 31.5335 41.2713 31.672C41.4861 31.9232 41.5919 32.2488 41.5657 32.5774C41.5395 32.906 41.3834 33.2109 41.1315 33.4253H41.1318ZM45.4166 32.3438C45.4122 32.3488 45.4075 32.3536 45.4024 32.3579C45.1506 32.5682 44.8252 32.6704 44.4976 32.6422C44.17 32.6141 43.8671 32.4577 43.6554 32.2076C43.6509 32.2035 43.647 32.1987 43.6438 32.1935C43.4908 32.0126 43.3928 31.7922 43.3611 31.558C43.3294 31.3238 43.3654 31.0855 43.4648 30.8708C43.5643 30.6562 43.723 30.4741 43.9226 30.3457C44.1223 30.2174 44.3545 30.1482 44.5922 30.1461C44.7754 30.1475 44.9561 30.1882 45.122 30.2653C45.2879 30.3425 45.4351 30.4543 45.5536 30.5931C45.7688 30.8434 45.8753 31.1683 45.8496 31.4966C45.8239 31.8249 45.6682 32.1296 45.4166 32.3438ZM49.5711 34.1035C49.5672 34.1074 49.562 34.1112 49.5581 34.1151C49.4336 34.2195 49.2895 34.2986 49.1342 34.3477C48.979 34.3968 48.8155 34.415 48.6531 34.4013C48.4908 34.3875 48.3328 34.3422 48.1881 34.2677C48.0434 34.1933 47.9148 34.0912 47.8098 33.9674C47.8067 33.9628 47.8032 33.9585 47.7994 33.9545C47.6457 33.7738 47.5471 33.5532 47.5149 33.3187C47.4827 33.0842 47.5184 32.8455 47.6178 32.6304C47.7172 32.4153 47.8761 32.2329 48.076 32.1043C48.2759 31.9757 48.5085 31.9064 48.7466 31.9045C48.9298 31.9055 49.1107 31.946 49.2767 32.0232C49.4426 32.1004 49.5897 32.2124 49.708 32.3515C49.9232 32.602 50.0296 32.9272 50.004 33.2557C49.9783 33.5841 49.8226 33.889 49.5711 34.1035Z" fill="white"/>
<path d="M46.7758 41.2794C46.8309 41.2981 47.2471 41.4271 47.4736 41.4916C47.6437 41.5399 47.597 41.3889 47.6017 41.2715C47.6146 40.9294 47.734 40.4675 47.5657 40.1477C47.2995 39.6693 46.7119 39.6543 46.2605 39.4443C46.1764 39.4058 46.0936 39.4186 46.0721 39.5085C45.9764 39.9101 45.9213 40.4313 46.1827 40.7996C46.3128 41.0279 46.5245 41.1992 46.7758 41.2794Z" fill="white"/>
<defs>
<linearGradient id="paint0_linear_1470_1546" x1="190.833" y1="123.221" x2="140.124" y2="173.609" gradientUnits="userSpaceOnUse">
<stop stop-color="white"/>
<stop offset="0.405571" stop-color="white"/>
<stop offset="1" stop-color="#3E3E3E"/>
</linearGradient>
<linearGradient id="paint1_linear_1470_1546" x1="239.167" y1="123.221" x2="188.458" y2="173.609" gradientUnits="userSpaceOnUse">
<stop stop-color="white"/>
<stop offset="0.405571" stop-color="white"/>
<stop offset="1" stop-color="#3E3E3E"/>
</linearGradient>
<linearGradient id="paint2_linear_1470_1546" x1="287.499" y1="123.221" x2="236.79" y2="173.609" gradientUnits="userSpaceOnUse">
<stop stop-color="white"/>
<stop offset="0.405571" stop-color="white"/>
<stop offset="1" stop-color="#3E3E3E"/>
</linearGradient>
<linearGradient id="paint3_linear_1470_1546" x1="190.833" y1="72.5558" x2="140.124" y2="122.944" gradientUnits="userSpaceOnUse">
<stop stop-color="white"/>
<stop offset="0.405571" stop-color="white"/>
<stop offset="1" stop-color="#3E3E3E"/>
</linearGradient>
<linearGradient id="paint4_linear_1470_1546" x1="239.167" y1="72.5558" x2="188.458" y2="122.944" gradientUnits="userSpaceOnUse">
<stop stop-color="white"/>
<stop offset="0.405571" stop-color="white"/>
<stop offset="1" stop-color="#3E3E3E"/>
</linearGradient>
<linearGradient id="paint5_linear_1470_1546" x1="287.5" y1="72.5558" x2="236.791" y2="122.944" gradientUnits="userSpaceOnUse">
<stop stop-color="white"/>
<stop offset="0.405571" stop-color="white"/>
<stop offset="1" stop-color="#3E3E3E"/>
</linearGradient>
<linearGradient id="paint6_linear_1470_1546" x1="190.833" y1="21.8888" x2="140.124" y2="72.2767" gradientUnits="userSpaceOnUse">
<stop stop-color="white"/>
<stop offset="0.405571" stop-color="white"/>
<stop offset="1" stop-color="#3E3E3E"/>
</linearGradient>
<linearGradient id="paint7_linear_1470_1546" x1="239.167" y1="21.8888" x2="188.458" y2="72.2767" gradientUnits="userSpaceOnUse">
<stop stop-color="white"/>
<stop offset="0.405571" stop-color="white"/>
<stop offset="1" stop-color="#3E3E3E"/>
</linearGradient>
<linearGradient id="paint8_linear_1470_1546" x1="287.5" y1="21.8888" x2="236.791" y2="72.2768" gradientUnits="userSpaceOnUse">
<stop stop-color="white"/>
<stop offset="0.405571" stop-color="white"/>
<stop offset="1" stop-color="#3E3E3E"/>
</linearGradient>
</defs>
</svg>
