<svg width="742" height="921" viewBox="0 0 742 921" fill="none" xmlns="http://www.w3.org/2000/svg">
<path d="M385.864 149.879C400.889 171.681 464.047 229.762 457.982 254.525C451.916 279.288 373.497 249.552 356.749 268.744C340.002 287.935 393.155 326.833 377.594 346.643C362.033 366.454 291.854 341.016 282.058 363.833C272.263 386.651 341.218 433.792 330.574 456.167C319.93 478.543 242.461 449.302 230.969 471.235C219.478 493.168 293.011 542.697 275.416 561.446C257.82 580.195 160.038 540.359 146.512 561.23C132.986 582.102 216.557 636.867 210.491 661.631C204.425 686.394 130.245 658.869 117.397 680.094C104.549 701.32 142.275 746.134 148.822 763.513" stroke="url(#paint0_linear_585_2000)" stroke-width="2" stroke-linecap="round"/>
<path d="M366.082 153.883C381.751 174.271 445.873 227.442 441.292 251.746C436.712 276.05 359.302 251.111 344.098 270.543C328.895 289.975 382.339 325.047 368.315 345.02C354.292 364.993 285.077 343.813 276.787 366.415C268.497 389.018 337.657 431.297 328.524 453.513C319.391 475.73 242.925 451.223 232.949 473.053C222.973 494.882 296.686 539.249 280.639 558.295C264.592 577.34 167.925 543.57 155.925 564.471C143.925 585.373 227.621 634.318 223.041 658.622C218.461 682.926 145.266 659.92 133.941 681.131C122.616 702.342 161.443 743.912 168.68 760.434" stroke="url(#paint1_linear_585_2000)" stroke-width="2" stroke-linecap="round"/>
<path d="M347.082 159.039C363.285 178.007 428.019 226.322 424.856 250.085C421.692 273.847 345.581 253.527 331.897 273.097C318.213 292.667 371.687 323.985 359.172 344.021C346.657 364.056 278.662 346.971 271.825 369.269C264.987 391.567 334.025 429.087 326.353 451.052C318.68 473.018 243.505 453.071 234.997 474.704C226.49 496.336 300.037 535.652 285.518 554.89C270.999 574.127 175.817 546.208 165.306 567.042C154.795 587.877 238.227 631.132 235.064 654.894C231.9 678.657 159.964 660.001 150.121 681.101C140.278 702.202 179.963 740.536 187.816 756.177" stroke="url(#paint2_linear_585_2000)" stroke-width="2" stroke-linecap="round"/>
<path d="M328.931 165.279C345.559 182.827 410.565 226.366 408.744 249.509C406.923 272.652 332.386 256.758 320.19 276.366C307.995 295.974 361.248 323.626 350.205 343.627C339.162 363.627 272.628 350.461 267.185 372.369C261.741 394.278 330.342 427.16 324.075 448.788C317.807 470.416 244.193 454.836 237.102 476.184C230.011 497.531 303.059 531.929 290.04 551.256C277.021 570.583 183.677 548.281 174.611 568.955C165.544 589.629 248.34 627.348 246.519 650.492C244.698 673.635 174.278 659.144 165.87 680.042C157.462 700.941 197.767 736.062 206.161 750.805" stroke="url(#paint3_linear_585_2000)" stroke-width="2" stroke-linecap="round"/>
<path d="M311.688 172.533C328.634 188.668 393.583 227.53 393.027 249.983C392.47 272.436 319.764 260.758 309.019 280.307C298.274 299.857 351.065 323.947 341.452 343.819C331.839 363.691 266.992 354.253 262.878 375.692C258.764 397.131 326.627 425.517 321.705 446.726C316.782 467.934 244.981 456.515 239.249 477.493C233.518 498.471 305.748 528.102 294.194 547.421C282.641 566.739 191.465 549.798 183.794 570.223C176.122 590.648 257.925 623.007 257.369 645.46C256.813 667.913 188.149 657.388 181.124 677.998C174.099 698.607 214.789 730.554 223.649 744.385" stroke="url(#paint4_linear_585_2000)" stroke-width="2" stroke-linecap="round"/>
<path d="M295.411 180.726C312.569 195.464 377.143 229.767 377.771 251.465C378.398 273.163 307.759 265.478 298.421 284.876C289.084 304.274 341.181 324.921 332.951 344.574C324.721 364.227 261.769 358.317 258.916 379.212C256.064 400.107 322.902 424.156 319.259 444.868C315.616 465.58 245.862 458.101 241.428 478.63C236.994 499.16 308.103 524.195 297.975 543.41C287.847 562.625 199.145 550.772 192.813 570.863C186.48 590.954 266.953 618.151 267.58 639.849C268.207 661.547 201.522 654.775 195.823 675.013C190.123 695.25 230.972 724.077 240.222 736.989" stroke="url(#paint5_linear_585_2000)" stroke-width="2" stroke-linecap="round"/>
<path d="M280.149 189.783C297.418 203.143 361.313 233.027 363.039 253.911C364.764 274.795 296.411 270.868 288.431 290.026C280.452 309.183 331.639 326.519 324.738 345.868C317.836 365.218 256.97 362.622 255.306 382.903C253.643 403.184 319.186 423.073 316.753 443.218C314.319 463.362 246.828 459.588 243.624 479.595C240.42 499.602 310.123 520.231 301.374 539.252C292.624 558.272 206.679 551.216 201.626 570.894C196.573 590.573 275.396 612.824 277.122 633.708C278.847 654.592 214.345 651.349 209.908 671.137C205.472 690.925 246.261 716.7 255.827 728.69" stroke="url(#paint6_linear_585_2000)" stroke-width="2" stroke-linecap="round"/>
<path d="M265.947 199.622C283.227 211.633 346.154 237.257 348.891 257.274C351.627 277.292 285.757 276.874 279.081 295.708C272.405 314.541 322.475 328.71 316.845 347.675C311.214 366.641 252.606 367.136 252.055 386.74C251.505 406.345 315.499 422.266 314.202 441.776C312.904 461.286 247.871 460.973 245.827 480.39C243.782 499.806 311.811 516.234 304.387 534.974C296.964 553.714 214.032 551.149 210.195 570.34C206.357 589.53 283.231 607.072 285.967 627.089C288.704 647.107 226.569 647.159 223.329 666.425C220.089 685.691 260.606 708.495 270.416 719.566" stroke="url(#paint7_linear_585_2000)" stroke-width="2" stroke-linecap="round"/>
<path d="M252.843 210.163C270.038 220.859 331.725 242.396 335.382 261.502C339.039 280.608 275.831 283.442 270.398 301.872C264.965 320.302 313.726 331.462 309.303 349.967C304.88 368.472 248.684 371.827 249.167 390.697C249.65 409.567 311.86 421.727 311.621 440.543C311.383 459.359 248.982 462.253 248.022 481.016C247.062 499.779 313.168 512.227 307.013 530.604C300.859 548.98 221.172 550.589 218.48 569.223C215.789 587.857 290.437 600.941 294.094 620.047C297.751 639.153 238.15 642.255 236.035 660.932C233.921 679.609 273.964 699.537 283.945 709.696" stroke="url(#paint8_linear_585_2000)" stroke-width="2" stroke-linecap="round"/>
<path d="M240.87 221.322C257.889 230.743 318.078 248.385 322.564 266.541C327.051 284.696 266.66 290.515 262.405 308.468C258.151 326.42 305.426 334.738 302.143 352.713C298.86 370.688 245.211 376.664 246.645 394.748C248.08 412.833 308.286 421.45 309.027 439.519C309.767 457.587 250.153 463.424 250.199 481.477C250.246 499.529 314.199 508.233 309.251 526.17C304.303 544.106 228.066 549.558 226.448 567.572C224.83 585.585 296.997 594.48 301.483 612.636C305.97 630.791 249.047 636.691 247.984 654.717C246.92 672.744 286.297 689.904 296.379 699.163" stroke="url(#paint9_linear_585_2000)" stroke-width="2" stroke-linecap="round"/>
<path d="M230.054 233.013C246.811 241.204 305.263 255.158 310.485 272.331C315.708 289.503 258.268 298.034 255.123 315.441C251.979 332.847 297.605 338.5 295.39 355.88C293.175 373.26 242.19 381.611 244.491 398.866C246.792 416.12 304.797 421.427 306.434 438.7C308.07 455.973 251.374 464.483 252.347 481.774C253.319 499.065 314.911 504.273 311.102 521.698C307.293 539.122 234.685 548.077 234.064 565.413C233.443 582.748 302.897 587.736 308.12 604.909C313.343 622.081 259.223 630.52 259.133 647.841C259.043 665.162 297.572 679.672 307.688 688.049" stroke="url(#paint10_linear_585_2000)" stroke-width="2" stroke-linecap="round"/>
<path d="M220.418 245.148C236.828 252.162 293.323 262.648 299.188 278.812C305.053 294.977 250.677 305.94 248.569 322.737C246.461 339.534 290.291 342.71 289.069 359.436C287.847 376.162 239.622 386.638 242.703 403.023C245.784 419.409 301.409 421.649 303.857 438.084C306.305 454.52 252.638 465.427 254.453 481.913C256.269 498.398 315.311 500.368 312.57 517.215C309.829 534.061 241.001 546.171 241.298 562.777C241.594 579.383 308.128 580.759 313.993 596.923C319.858 613.087 268.647 623.8 269.449 640.366C270.252 656.932 307.764 668.924 317.847 676.439" stroke="url(#paint11_linear_585_2000)" stroke-width="2" stroke-linecap="round"/>
<path d="M211.973 257.644C227.96 263.535 282.296 270.786 288.709 285.924C295.122 301.062 243.902 314.175 242.754 330.304C241.607 346.434 283.509 347.327 283.201 363.347C282.894 379.366 237.506 391.714 241.279 407.198C245.051 422.682 298.138 422.107 301.31 437.67C304.483 453.233 253.935 466.258 256.507 481.899C259.08 497.541 315.406 496.541 313.659 512.749C311.912 528.958 246.987 543.869 248.12 559.7C249.252 575.53 312.683 573.598 319.096 588.736C325.508 603.874 277.288 616.593 278.901 632.36C280.513 648.128 316.85 657.741 326.836 664.42" stroke="url(#paint12_linear_585_2000)" stroke-width="2" stroke-linecap="round"/>
<path d="M204.73 270.409C220.22 275.241 272.218 279.5 279.084 293.599C285.95 307.699 237.954 322.674 237.688 338.086C237.421 353.497 277.28 352.309 277.806 367.575C278.332 382.84 235.838 396.804 240.214 411.361C244.589 425.919 294.999 422.789 298.809 437.451C302.618 452.112 255.256 466.971 258.499 481.737C261.742 496.503 315.209 492.811 314.377 508.326C313.544 523.842 252.619 541.196 254.504 556.212C256.388 571.228 316.558 566.303 323.424 580.402C330.29 594.501 285.124 608.956 287.462 623.888C289.799 638.821 324.815 646.205 334.645 652.077" stroke="url(#paint13_linear_585_2000)" stroke-width="2" stroke-linecap="round"/>
<path d="M198.689 283.358C213.616 287.194 263.115 288.716 270.341 301.772C277.567 314.828 232.841 331.378 233.374 346.026C233.907 360.675 271.623 357.612 272.899 372.083C274.176 386.554 234.613 401.877 239.502 415.488C244.39 429.1 292.008 423.682 296.365 437.42C300.723 451.159 256.591 467.568 260.418 481.432C264.244 495.297 314.73 489.196 314.732 503.971C314.733 518.745 257.875 538.182 260.426 552.35C262.978 566.518 319.753 558.921 326.979 571.977C334.205 585.033 292.135 600.952 295.111 615.018C298.087 629.085 331.65 634.398 341.266 639.498" stroke="url(#paint14_linear_585_2000)" stroke-width="2" stroke-linecap="round"/>
<path d="M193.847 296.404C208.151 299.314 255.011 298.359 262.504 310.374C269.997 322.388 228.566 340.226 229.814 354.072C231.062 367.918 266.553 363.192 268.495 376.835C270.437 390.477 233.823 406.902 239.135 419.556C244.447 432.21 289.177 424.774 293.993 437.574C298.81 450.373 257.934 468.048 262.255 480.993C266.576 493.938 313.982 485.717 314.734 499.708C315.486 513.7 262.735 534.858 265.866 548.152C268.997 561.446 322.272 551.503 329.765 563.518C337.258 575.532 298.304 592.643 301.832 605.82C305.36 618.998 337.352 622.404 346.699 626.769" stroke="url(#paint15_linear_585_2000)" stroke-width="2" stroke-linecap="round"/>
<path d="M190.195 309.459C203.82 311.517 247.924 308.355 255.593 319.336C263.262 330.317 225.128 349.156 227.005 362.168C228.882 375.179 262.083 369.005 264.604 381.791C267.125 394.577 233.459 411.85 239.105 423.54C244.751 435.23 286.52 426.052 291.706 437.903C296.893 449.755 259.274 468.414 264.001 480.426C268.728 492.438 312.978 482.39 314.396 495.563C315.814 508.735 267.182 531.256 270.806 543.655C274.43 556.054 324.122 544.098 331.791 555.079C339.459 566.06 303.624 584.093 307.615 596.363C311.607 608.634 341.922 610.306 350.95 613.976" stroke="url(#paint16_linear_585_2000)" stroke-width="2" stroke-linecap="round"/>
<path d="M187.716 322.44C200.613 323.721 241.866 318.625 249.62 328.588C257.375 338.55 222.52 358.108 224.94 370.259C227.359 382.41 258.222 375.005 261.234 386.913C264.247 398.821 233.507 416.691 239.399 427.417C245.291 438.144 284.047 427.501 289.515 438.401C294.983 449.302 260.602 468.665 265.647 479.739C270.692 490.813 311.734 479.232 313.73 491.557C315.727 503.882 271.2 527.408 275.229 538.899C279.257 550.39 325.313 536.752 333.068 546.714C340.823 556.676 308.085 575.365 312.452 586.717C316.82 598.07 345.369 598.186 354.031 601.204" stroke="url(#paint17_linear_585_2000)" stroke-width="2" stroke-linecap="round"/>
<path d="M186.389 335.262C198.516 335.845 236.843 329.094 244.597 338.059C252.351 347.023 220.735 367.021 223.609 378.292C226.483 389.564 254.976 381.147 258.392 392.162C261.808 403.177 233.957 421.395 240.007 431.165C246.056 440.935 281.769 429.105 287.432 439.059C293.094 449.012 261.912 468.804 267.187 478.941C272.462 489.077 310.267 476.259 312.753 487.713C315.24 499.168 274.778 523.347 279.123 533.923C283.469 544.499 325.859 529.512 333.613 538.477C341.367 547.441 311.687 566.524 316.343 576.953C320.999 587.382 347.706 586.124 355.96 588.537" stroke="url(#paint18_linear_585_2000)" stroke-width="2" stroke-linecap="round"/>
<path d="M186.186 347.845C197.507 347.81 232.857 339.684 240.526 347.678C248.194 355.672 219.756 375.837 222.997 386.216C226.237 396.595 252.347 387.383 256.079 397.497C259.812 407.611 234.79 425.936 240.912 434.763C247.035 443.59 279.696 430.85 285.467 439.866C291.238 448.882 263.193 468.835 268.613 478.04C274.032 487.246 308.591 473.484 311.48 484.052C314.369 494.62 277.904 519.108 282.48 528.768C287.056 538.428 325.776 522.425 333.445 530.419C341.114 538.413 314.433 557.631 319.29 567.139C324.147 576.647 348.953 574.2 356.759 576.058" stroke="url(#paint19_linear_585_2000)" stroke-width="2" stroke-linecap="round"/>
<path d="M187.075 360.107C197.561 359.538 229.903 350.319 237.406 357.375C244.908 364.432 219.568 384.498 223.087 393.978C226.606 403.458 250.335 393.669 254.296 402.88C258.257 412.091 235.99 430.287 242.102 438.19C248.213 446.093 277.835 432.718 283.63 440.813C289.426 448.909 264.439 468.759 269.918 477.047C275.397 485.334 306.727 470.921 309.93 480.593C313.132 490.266 280.571 514.726 285.291 523.475C290.011 532.224 325.084 515.533 332.587 522.589C340.089 529.646 316.33 548.75 321.303 557.345C326.276 565.941 349.134 562.492 356.458 563.847" stroke="url(#paint20_linear_585_2000)" stroke-width="2" stroke-linecap="round"/>
<path d="M189.017 371.974C198.646 370.954 227.974 360.922 235.232 367.079C242.49 373.237 220.148 392.947 223.858 401.529C227.568 410.11 248.935 399.959 253.039 408.271C257.143 416.583 237.538 434.424 243.558 441.427C249.577 448.431 276.194 434.694 281.931 441.89C287.669 449.086 265.642 468.581 271.098 475.97C276.554 483.358 304.692 468.581 308.12 477.355C311.548 486.129 282.773 510.234 287.553 518.085C292.333 525.935 323.806 508.88 331.064 515.038C338.323 521.195 317.388 539.943 322.394 547.64C327.399 555.336 348.278 551.077 355.09 551.981" stroke="url(#paint21_linear_585_2000)" stroke-width="2" stroke-linecap="round"/>
<path d="M191.971 383.37C200.725 381.985 227.053 371.419 233.994 376.721C240.934 382.023 221.471 401.13 225.285 408.82C229.1 416.51 248.142 406.207 252.304 413.632C256.465 421.056 239.414 438.321 245.263 444.457C251.112 450.593 274.778 436.758 280.379 443.084C285.98 449.409 266.794 468.304 272.147 474.819C277.5 481.334 302.506 466.476 306.072 474.355C309.639 482.234 284.509 505.669 289.266 512.639C294.024 519.609 321.967 502.507 328.907 507.809C335.848 513.112 317.625 531.271 322.581 538.089C327.537 544.907 346.422 540.026 352.695 540.536" stroke="url(#paint22_linear_585_2000)" stroke-width="2" stroke-linecap="round"/>
<path d="M195.885 394.225C203.758 392.56 227.121 381.736 233.674 386.232C240.227 390.728 223.507 408.995 227.341 415.806C231.176 422.616 247.943 412.37 252.08 418.924C256.217 425.477 241.594 441.959 247.198 447.263C252.801 452.567 273.591 438.896 278.979 444.384C284.367 449.872 267.888 467.934 273.061 473.605C278.233 479.277 300.188 464.614 303.806 471.608C307.425 478.603 285.777 501.066 290.431 507.179C295.086 513.292 319.595 496.453 326.148 500.949C332.702 505.445 317.06 522.794 321.887 528.759C326.714 534.725 343.604 529.412 349.319 529.584" stroke="url(#paint23_linear_585_2000)" stroke-width="2" stroke-linecap="round"/>
<path d="M200.71 404.474C207.698 402.613 228.152 391.801 234.253 395.545C240.355 399.288 226.223 416.491 229.995 422.442C233.767 428.393 248.327 418.404 252.358 424.11C256.389 429.816 244.054 445.315 249.342 449.83C254.63 454.344 272.636 441.089 277.739 445.779C282.842 450.468 268.918 467.475 273.836 472.34C278.754 477.205 297.758 463.003 301.345 469.13C304.932 475.256 286.579 496.461 291.053 501.746C295.527 507.031 316.721 490.755 322.822 494.499C328.923 498.242 315.716 514.569 320.338 519.714C324.961 524.859 339.869 519.303 345.009 519.195" stroke="url(#paint24_linear_585_2000)" stroke-width="2" stroke-linecap="round"/>
<path d="M206.386 414.051C212.495 412.08 230.118 401.545 235.707 404.594C241.296 407.643 229.585 423.57 233.213 428.687C236.842 433.803 249.278 424.266 253.124 429.153C256.97 434.04 246.771 448.372 251.676 452.143C256.58 455.914 271.916 443.319 276.665 447.254C281.414 451.189 269.877 466.933 274.47 471.032C279.063 475.131 295.239 461.65 298.712 466.931C302.185 472.211 286.92 491.886 291.14 496.379C295.36 500.872 313.378 485.448 318.967 488.497C324.556 491.546 313.623 506.653 317.967 511.015C322.311 515.377 335.267 509.763 339.819 509.434" stroke="url(#paint25_linear_585_2000)" stroke-width="2" stroke-linecap="round"/>
<path d="M212.853 422.897C218.093 420.9 232.983 410.897 238.005 413.314C243.027 415.732 233.551 430.186 236.959 434.499C240.366 438.812 250.774 429.915 254.361 434.017C257.948 438.119 249.718 451.111 254.176 454.19C258.634 457.27 271.431 445.568 275.761 448.797C280.091 452.027 270.759 466.313 274.961 469.693C279.163 473.073 292.651 460.558 295.93 465.022C299.21 469.485 286.808 487.376 290.702 491.118C294.597 494.859 309.602 480.563 314.624 482.98C319.646 485.397 310.81 499.099 314.807 502.72C318.804 506.341 329.85 500.852 333.809 500.36" stroke="url(#paint26_linear_585_2000)" stroke-width="2" stroke-linecap="round"/>
<path d="M220.046 430.958C224.435 429.018 236.708 419.795 241.113 421.646C245.519 423.497 238.08 436.297 241.193 439.843C244.305 443.39 252.796 435.31 256.052 438.668C259.308 442.026 252.867 453.518 256.821 455.961C260.775 458.404 271.179 447.817 275.031 450.395C278.882 452.973 271.559 465.622 275.307 468.334C279.056 471.046 290.014 459.733 293.024 463.413C296.034 467.094 286.251 482.966 289.753 486.001C293.255 489.036 305.429 476.13 309.835 477.982C314.24 479.833 307.315 491.96 310.9 494.887C314.484 497.815 323.677 492.628 327.04 492.033" stroke="url(#paint27_linear_585_2000)" stroke-width="2" stroke-linecap="round"/>
<path d="M227.897 438.185C231.459 436.382 241.25 428.177 244.995 429.531C248.74 430.886 243.128 441.865 245.874 444.686C248.62 447.508 255.319 440.416 258.176 443.075C261.033 445.733 256.192 455.58 259.588 457.447C262.984 459.314 271.161 450.052 274.478 452.035C277.795 454.019 272.272 464.867 275.51 466.967C278.747 469.067 287.352 459.176 290.019 462.114C292.686 465.052 285.262 478.69 288.309 481.069C291.357 483.448 300.901 472.179 304.646 473.534C308.392 474.888 303.176 485.285 306.287 487.571C309.398 489.857 316.809 485.145 319.578 484.506" stroke="url(#paint28_linear_585_2000)" stroke-width="2" stroke-linecap="round"/>
<path d="M236.332 444.53C239.098 442.943 246.56 435.981 249.607 436.911C252.655 437.841 248.647 446.85 250.96 448.994C253.272 451.139 258.314 445.194 260.708 447.203C263.102 449.212 259.661 457.285 262.452 458.639C265.243 459.993 271.371 452.252 274.104 453.703C276.836 455.153 272.894 464.054 275.568 465.601C278.242 467.148 284.686 458.887 286.94 461.127C289.194 463.368 283.855 474.577 286.389 476.355C288.923 478.133 296.057 468.732 299.104 469.662C302.152 470.592 298.435 479.119 301.016 480.82C303.597 482.521 309.31 478.45 311.492 477.826" stroke="url(#paint29_linear_585_2000)" stroke-width="2" stroke-linecap="round"/>
<path d="M245.278 449.955C247.284 448.659 252.587 443.154 254.905 443.734C257.222 444.315 254.586 451.223 256.402 452.742C258.219 454.26 261.752 449.61 263.624 451.025C265.497 452.44 263.247 458.624 265.389 459.532C267.532 460.44 271.806 454.402 273.909 455.385C276.012 456.367 273.42 463.192 275.483 464.249C277.546 465.306 282.035 458.866 283.812 460.459C285.589 462.052 282.045 470.661 284.012 471.897C285.98 473.133 290.94 465.811 293.257 466.391C295.575 466.972 293.137 473.507 295.137 474.684C297.136 475.86 301.247 472.589 302.855 472.038" stroke="url(#paint30_linear_585_2000)" stroke-width="2" stroke-linecap="round"/>
<path d="M254.658 454.423C255.945 453.491 259.276 449.642 260.838 449.95C262.4 450.258 260.893 454.951 262.156 455.901C263.418 456.851 265.602 453.632 266.898 454.511C268.194 455.39 266.918 459.588 268.376 460.12C269.834 460.652 272.46 456.483 273.894 457.066C275.328 457.649 273.848 462.286 275.258 462.92C276.668 463.554 279.423 459.109 280.662 460.111C281.901 461.112 279.851 466.97 281.204 467.726C282.557 468.483 285.594 463.434 287.156 463.742C288.718 464.05 287.331 468.489 288.703 469.204C290.074 469.92 292.692 467.6 293.741 467.178" stroke="url(#paint31_linear_585_2000)" stroke-width="2" stroke-linecap="round"/>
<path d="M264.391 457.905C265.008 457.407 266.566 455.398 267.354 455.512C268.141 455.626 267.516 458.01 268.171 458.453C268.826 458.895 269.829 457.231 270.499 457.637C271.169 458.043 270.646 460.174 271.387 460.402C272.128 460.631 273.327 458.48 274.058 458.735C274.788 458.99 274.175 461.345 274.895 461.626C275.615 461.907 276.87 459.615 277.515 460.084C278.16 460.553 277.295 463.533 277.99 463.876C278.685 464.22 280.064 461.619 280.852 461.733C281.639 461.847 281.066 464.101 281.77 464.424C282.473 464.746 283.717 463.52 284.229 463.282" stroke="url(#paint32_linear_585_2000)" stroke-width="2" stroke-linecap="round"/>
<defs>
<linearGradient id="paint0_linear_585_2000" x1="-14906.1" y1="29037.2" x2="-26437.4" y2="22881.7" gradientUnits="userSpaceOnUse">
<stop offset="0.45" stop-color="#0490FB"/>
<stop offset="1" stop-color="#151FA2"/>
</linearGradient>
<linearGradient id="paint1_linear_585_2000" x1="-12925.1" y1="28912.5" x2="-24417.4" y2="23552.7" gradientUnits="userSpaceOnUse">
<stop offset="0.45" stop-color="#0490FB"/>
<stop offset="1" stop-color="#151FA2"/>
</linearGradient>
<linearGradient id="paint2_linear_585_2000" x1="-11004.1" y1="28665.9" x2="-22404.2" y2="24080.7" gradientUnits="userSpaceOnUse">
<stop offset="0.45" stop-color="#0490FB"/>
<stop offset="1" stop-color="#151FA2"/>
</linearGradient>
<linearGradient id="paint3_linear_585_2000" x1="-9150.54" y1="28303.1" x2="-20407.2" y2="24467.3" gradientUnits="userSpaceOnUse">
<stop offset="0.45" stop-color="#0490FB"/>
<stop offset="1" stop-color="#151FA2"/>
</linearGradient>
<linearGradient id="paint4_linear_585_2000" x1="-7371.3" y1="27830" x2="-18436" y2="24715" gradientUnits="userSpaceOnUse">
<stop offset="0.45" stop-color="#0490FB"/>
<stop offset="1" stop-color="#151FA2"/>
</linearGradient>
<linearGradient id="paint5_linear_585_2000" x1="-5672.87" y1="27253.1" x2="-16500" y2="24826.9" gradientUnits="userSpaceOnUse">
<stop offset="0.45" stop-color="#0490FB"/>
<stop offset="1" stop-color="#151FA2"/>
</linearGradient>
<linearGradient id="paint6_linear_585_2000" x1="-4061.21" y1="26579.2" x2="-14608" y2="24806.6" gradientUnits="userSpaceOnUse">
<stop offset="0.45" stop-color="#0490FB"/>
<stop offset="1" stop-color="#151FA2"/>
</linearGradient>
<linearGradient id="paint7_linear_585_2000" x1="-2541.75" y1="25815.4" x2="-12769.1" y2="24658.6" gradientUnits="userSpaceOnUse">
<stop offset="0.45" stop-color="#0490FB"/>
<stop offset="1" stop-color="#151FA2"/>
</linearGradient>
<linearGradient id="paint8_linear_585_2000" x1="-1119.4" y1="24969.1" x2="-10991.5" y2="24387.8" gradientUnits="userSpaceOnUse">
<stop offset="0.45" stop-color="#0490FB"/>
<stop offset="1" stop-color="#151FA2"/>
</linearGradient>
<linearGradient id="paint9_linear_585_2000" x1="201.493" y1="24048.1" x2="-9283.5" y2="23999.7" gradientUnits="userSpaceOnUse">
<stop offset="0.45" stop-color="#0490FB"/>
<stop offset="1" stop-color="#151FA2"/>
</linearGradient>
<linearGradient id="paint10_linear_585_2000" x1="1417.15" y1="23060.1" x2="-7652.63" y2="23500.4" gradientUnits="userSpaceOnUse">
<stop offset="0.45" stop-color="#0490FB"/>
<stop offset="1" stop-color="#151FA2"/>
</linearGradient>
<linearGradient id="paint11_linear_585_2000" x1="2524.37" y1="22013.3" x2="-6106.08" y2="22896.8" gradientUnits="userSpaceOnUse">
<stop offset="0.45" stop-color="#0490FB"/>
<stop offset="1" stop-color="#151FA2"/>
</linearGradient>
<linearGradient id="paint12_linear_585_2000" x1="3520.52" y1="20915.9" x2="-4650.48" y2="22195.9" gradientUnits="userSpaceOnUse">
<stop offset="0.45" stop-color="#0490FB"/>
<stop offset="1" stop-color="#151FA2"/>
</linearGradient>
<linearGradient id="paint13_linear_585_2000" x1="4403.6" y1="19776.4" x2="-3291.86" y2="21405.5" gradientUnits="userSpaceOnUse">
<stop offset="0.45" stop-color="#0490FB"/>
<stop offset="1" stop-color="#151FA2"/>
</linearGradient>
<linearGradient id="paint14_linear_585_2000" x1="5172.15" y1="18603.1" x2="-2035.64" y2="20533.6" gradientUnits="userSpaceOnUse">
<stop offset="0.45" stop-color="#0490FB"/>
<stop offset="1" stop-color="#151FA2"/>
</linearGradient>
<linearGradient id="paint15_linear_585_2000" x1="5825.35" y1="17404.6" x2="-886.569" y2="19588.7" gradientUnits="userSpaceOnUse">
<stop offset="0.45" stop-color="#0490FB"/>
<stop offset="1" stop-color="#151FA2"/>
</linearGradient>
<linearGradient id="paint16_linear_585_2000" x1="6362.97" y1="16189.2" x2="151.269" y2="18579.7" gradientUnits="userSpaceOnUse">
<stop offset="0.45" stop-color="#0490FB"/>
<stop offset="1" stop-color="#151FA2"/>
</linearGradient>
<linearGradient id="paint17_linear_585_2000" x1="6785.35" y1="14965.5" x2="1074.52" y2="17515.5" gradientUnits="userSpaceOnUse">
<stop offset="0.45" stop-color="#0490FB"/>
<stop offset="1" stop-color="#151FA2"/>
</linearGradient>
<linearGradient id="paint18_linear_585_2000" x1="7093.43" y1="13741.9" x2="1880.54" y2="16405.4" gradientUnits="userSpaceOnUse">
<stop offset="0.45" stop-color="#0490FB"/>
<stop offset="1" stop-color="#151FA2"/>
</linearGradient>
<linearGradient id="paint19_linear_585_2000" x1="7288.73" y1="12526.5" x2="2567.43" y2="15258.8" gradientUnits="userSpaceOnUse">
<stop offset="0.45" stop-color="#0490FB"/>
<stop offset="1" stop-color="#151FA2"/>
</linearGradient>
<linearGradient id="paint20_linear_585_2000" x1="7373.33" y1="11327.6" x2="3134.02" y2="14085.1" gradientUnits="userSpaceOnUse">
<stop offset="0.45" stop-color="#0490FB"/>
<stop offset="1" stop-color="#151FA2"/>
</linearGradient>
<linearGradient id="paint21_linear_585_2000" x1="7349.88" y1="10153" x2="3579.87" y2="12893.9" gradientUnits="userSpaceOnUse">
<stop offset="0.45" stop-color="#0490FB"/>
<stop offset="1" stop-color="#151FA2"/>
</linearGradient>
<linearGradient id="paint22_linear_585_2000" x1="7221.55" y1="9010.56" x2="3905.26" y2="11694.4" gradientUnits="userSpaceOnUse">
<stop offset="0.45" stop-color="#0490FB"/>
<stop offset="1" stop-color="#151FA2"/>
</linearGradient>
<linearGradient id="paint23_linear_585_2000" x1="6992.03" y1="7907.64" x2="4111.2" y2="10496.2" gradientUnits="userSpaceOnUse">
<stop offset="0.45" stop-color="#0490FB"/>
<stop offset="1" stop-color="#151FA2"/>
</linearGradient>
<linearGradient id="paint24_linear_585_2000" x1="6665.54" y1="6851.47" x2="4199.36" y2="9308.18" gradientUnits="userSpaceOnUse">
<stop offset="0.45" stop-color="#0490FB"/>
<stop offset="1" stop-color="#151FA2"/>
</linearGradient>
<linearGradient id="paint25_linear_585_2000" x1="6246.75" y1="5848.94" x2="4172.1" y2="8139.49" gradientUnits="userSpaceOnUse">
<stop offset="0.45" stop-color="#0490FB"/>
<stop offset="1" stop-color="#151FA2"/>
</linearGradient>
<linearGradient id="paint26_linear_585_2000" x1="5740.8" y1="4906.59" x2="4032.38" y2="6998.8" gradientUnits="userSpaceOnUse">
<stop offset="0.45" stop-color="#0490FB"/>
<stop offset="1" stop-color="#151FA2"/>
</linearGradient>
<linearGradient id="paint27_linear_585_2000" x1="5153.26" y1="4030.59" x2="3783.8" y2="5894.54" gradientUnits="userSpaceOnUse">
<stop offset="0.45" stop-color="#0490FB"/>
<stop offset="1" stop-color="#151FA2"/>
</linearGradient>
<linearGradient id="paint28_linear_585_2000" x1="4490.13" y1="3226.71" x2="3430.51" y2="4834.8" gradientUnits="userSpaceOnUse">
<stop offset="0.45" stop-color="#0490FB"/>
<stop offset="1" stop-color="#151FA2"/>
</linearGradient>
<linearGradient id="paint29_linear_585_2000" x1="3757.74" y1="2500.3" x2="2977.21" y2="3827.32" gradientUnits="userSpaceOnUse">
<stop offset="0.45" stop-color="#0490FB"/>
<stop offset="1" stop-color="#151FA2"/>
</linearGradient>
<linearGradient id="paint30_linear_585_2000" x1="2962.82" y1="1856.27" x2="2429.08" y2="2879.44" gradientUnits="userSpaceOnUse">
<stop offset="0.45" stop-color="#0490FB"/>
<stop offset="1" stop-color="#151FA2"/>
</linearGradient>
<linearGradient id="paint31_linear_585_2000" x1="2112.37" y1="1299.05" x2="1791.79" y2="1998.08" gradientUnits="userSpaceOnUse">
<stop offset="0.45" stop-color="#0490FB"/>
<stop offset="1" stop-color="#151FA2"/>
</linearGradient>
<linearGradient id="paint32_linear_585_2000" x1="1213.71" y1="832.607" x2="1071.41" y2="1189.72" gradientUnits="userSpaceOnUse">
<stop offset="0.45" stop-color="#0490FB"/>
<stop offset="1" stop-color="#151FA2"/>
</linearGradient>
</defs>
</svg>
