<svg width="506" height="406" viewBox="0 0 506 406" fill="none" xmlns="http://www.w3.org/2000/svg">
<g clip-path="url(#clip0_612_12359)">
<path opacity="0.24" d="M191.666 13.7567C173.839 28.4085 164.654 51.936 149.311 69.4801C126.868 95.1705 92.4838 106.715 71.7071 133.905C47.6841 165.314 47.5752 212.236 64.1172 248.725C72.6101 267.495 85.4077 286.697 81.461 307.075C79.5616 316.962 73.8322 325.597 71.5747 335.393C67.5968 352.638 75.3035 371.268 87.7976 383.028C100.292 394.787 116.834 400.572 133.298 403.431C187.532 412.837 242.366 393.486 297.301 392.45C313.501 392.135 329.778 393.42 345.869 391.389C387.85 386.102 426.049 357.354 447.106 318.354C450.36 312.346 453.333 305.832 453.411 298.896C453.52 291.827 450.679 285.139 448.024 278.658C439.461 257.808 432.191 236.112 429.816 213.512C427.31 189.769 430.299 165.72 428.672 141.886C425.714 98.6263 404.089 53.9912 366.248 37.9223C335.492 24.8616 298.562 34.5577 268.942 18.7622C256.487 12.1324 252.361 1.98881 236.972 0.347937C221.06 -1.35923 204.386 3.27333 191.666 13.7567Z" fill="white"/>
<path opacity="0.24" d="M174.665 346.058C157.757 345.959 137.47 347.881 129.515 363.776C156.169 382.837 190.164 385.083 222.29 385.091C237.081 385.091 251.957 384.76 266.623 382.605C286.652 379.621 306.074 373.24 325.403 366.859L347.285 359.666C349.364 358.978 351.808 357.876 352.12 355.58C354.369 339.362 291.401 346.423 281.429 346.705C245.924 347.682 210.201 346.282 174.665 346.058Z" fill="#68E1FD"/>
<path d="M229.125 88.6898C229.125 88.6898 214.443 95.4605 212.715 96.9771C211.158 98.3527 215.362 192.222 215.681 196.813C216 201.405 239.486 202.167 249.668 200.095C256.453 198.611 263.091 196.45 269.495 193.639C269.495 193.639 272.71 96.6787 270.71 94.9633C268.709 93.2478 249.271 86.8252 249.271 86.8252L229.125 88.6898Z" fill="#68E1FD"/>
<path d="M264.396 93.994C264.396 93.994 268.88 93.6791 271.932 95.6515C274.983 97.6238 303.693 124.342 304.409 132.206C305.125 140.071 299.357 145.043 296.842 144.505C294.328 143.966 286.582 135.869 284.846 133.325C283.11 130.781 267.72 127.392 267.72 127.392L264.396 93.994Z" fill="#68E1FD"/>
<path d="M214.576 142.251C214.579 142.793 214.776 143.314 215.128 143.706C215.48 144.099 215.959 144.334 216.467 144.364C225.855 146.51 235.026 140.634 244.429 138.563C248.695 137.643 253.187 137.485 257.102 135.455C261.898 132.969 265.113 128.063 268.102 123.356L275.886 111.157C277.124 109.201 278.393 106.657 277.233 104.651C276.33 103.093 274.267 102.712 272.625 103.267C270.982 103.823 269.674 105.099 268.382 106.309C261.898 112.368 254.777 117.607 247.162 121.922C243.927 123.847 240.502 125.385 236.948 126.505C230.721 128.328 219.573 126.795 213.283 127.085C213.252 127.118 213.797 137.717 214.576 142.251Z" fill="url(#paint0_linear_612_12359)"/>
<path d="M296.671 119.925C298.46 120.789 300.014 122.124 301.186 123.803C303.217 126.754 306.721 131.038 307.413 134.577C308.238 138.679 304.798 144.48 300.835 145.218C298.4 145.609 295.911 145.316 293.616 144.367C291.32 143.417 289.298 141.845 287.75 139.806C286.235 137.729 285.199 135.303 284.726 132.722C284.253 130.141 284.355 127.478 285.025 124.947C286.637 118.707 292.156 117.737 296.671 119.925Z" fill="#68E1FD"/>
<path d="M255.888 350.998C255.888 350.998 254.129 363.354 255.109 364.755C256.09 366.155 261.633 365.7 265.066 364.887C268.499 364.075 269.332 359.352 269.332 359.352L269.565 355.465L255.888 350.998Z" fill="#BA816C"/>
<path d="M208.605 345.238C208.605 345.238 205.086 362.003 205.911 363.47C206.737 364.937 212.918 361.299 216.389 360.843C219.861 360.387 220.196 354.421 220.196 354.421L220.788 350.575L208.605 345.238Z" fill="#BA816C"/>
<path d="M228.479 79.5157C228.479 79.5157 229.771 89.5184 228.744 93.2228C227.716 96.9272 232.488 108.016 239.564 108.695C246.64 109.375 247.73 96.5625 247.862 95.0543C247.995 93.546 245.932 92.5681 246.952 88.8886C247.971 85.209 229.569 75.0572 228.479 79.5157Z" fill="#BA816C"/>
<path d="M246.952 88.881C246.173 91.7401 247.208 92.9666 247.668 94.0688C245.968 95.5676 243.809 96.3466 241.604 96.2566C237.353 95.8423 231.297 91.4666 229.039 84.4059L228.923 84.0164C228.728 81.4888 228.479 79.5081 228.479 79.5081C229.569 75.0579 247.979 85.1849 246.952 88.881Z" fill="#A6634C"/>
<path d="M229 91.8147C229 91.8147 233.5 106.591 238.24 108.563C238.24 108.563 239.501 109.442 235.773 111.364C232.044 113.287 223.084 101.03 225.201 92.8755C225.436 91.837 225.917 90.8801 226.598 90.0964C227.28 89.3128 228.139 88.7288 229.094 88.4004L229 91.8147Z" fill="white"/>
<path d="M246.827 90.389C246.827 90.389 247.512 100.997 242.935 107.792C242.935 107.792 244.398 110.643 245.815 110.776C247.232 110.908 251.536 102.207 250.696 95.2867C250.197 91.2757 247.629 89.3779 246.827 90.389Z" fill="white"/>
<path d="M216.39 196.896L213.471 260.26L207.874 348.105C207.874 348.105 211.089 352.207 220.329 352.34L236.995 262.978L244.826 217.564L251.583 261.835L254.394 354.097C254.394 354.097 260.94 354.238 269.433 355.058L274.945 264.072L269.495 193.631L216.39 196.896Z" fill="#606161"/>
<path d="M216.39 196.896L213.471 260.26L207.874 348.105C207.874 348.105 211.089 352.207 220.329 352.34L236.995 262.978L244.826 217.564L251.583 261.835L254.394 354.097C254.394 354.097 260.94 354.238 269.433 355.058L274.945 264.072L269.495 193.631L216.39 196.896Z" fill="url(#paint1_linear_612_12359)"/>
<path d="M253.693 59.8921C253.693 59.8921 253.452 79.6241 251.583 84.7538C249.715 89.8836 245.091 94.019 240.841 93.6046C236.591 93.1903 230.542 88.8146 228.285 81.7622C226.027 74.7097 226.011 57.9695 226.914 55.7982C227.817 53.627 232.691 46.8895 243.9 49.069C251.63 50.5773 253.95 56.8756 253.693 59.8921Z" fill="#BA816C"/>
<path d="M246.103 43.9394C244.745 42.3106 243.11 40.9694 241.284 39.9864C239.461 39.1479 237.502 38.6975 235.516 38.6604C231.709 38.4698 227.42 39.4477 225.334 42.804C223.979 45.0167 223.832 47.7764 223.979 50.4531C224.029 50.8095 223.985 51.1734 223.855 51.5056C223.466 52.2846 222.407 52.1272 221.582 52.1189C218.305 52.1189 216.086 56.2625 216.818 59.652C217.783 64.1188 221.893 65.0055 223.723 68.4862C224.018 69.0497 224.431 69.6795 225.038 69.6961C225.817 69.6961 226.229 68.7845 226.455 68.0387C227.591 64.0608 227.085 60.3232 229.771 56.8177C229.942 56.5427 230.203 56.3449 230.503 56.2625C231.421 56.1548 231.561 57.9779 232.48 58.1188C233.321 56.9752 234.527 55.6824 235.835 56.1216C236.597 56.5198 237.219 57.1675 237.61 57.9697C238.681 59.5636 240.041 60.9123 241.611 61.9356C243.181 62.9588 244.928 63.6359 246.748 63.9266C248.568 64.2172 250.425 64.1155 252.208 63.6275C253.99 63.1395 255.663 62.2751 257.126 61.0857C258.162 60.3335 258.937 59.2382 259.329 57.9697C259.757 56.2625 259.025 54.4973 258.27 52.9227C257.708 51.5481 256.917 50.2931 255.935 49.2183C255.433 48.6839 254.816 48.2899 254.136 48.0716C253.457 47.8532 252.738 47.8173 252.042 47.967C251.475 48.2558 250.849 48.387 250.221 48.3482C249.809 48.1814 249.45 47.8941 249.186 47.5195C248.142 46.3675 247.146 45.1162 246.103 43.9394Z" fill="#606161"/>
<path d="M227.249 68.743C227.249 68.743 226.922 64.1519 223.964 65.3867C221.006 66.6215 223.839 75.2568 225.194 76.1601C225.792 76.6359 226.504 76.923 227.249 76.9888" fill="#BA816C"/>
<path d="M293.713 132.985C293.713 132.985 289.968 126.919 298.29 120.612C306.611 114.305 332.261 96.8691 332.261 96.8691L333.888 106.938C333.888 106.938 309.149 140.841 302.704 139.739C300.821 139.417 299.031 138.642 297.473 137.471C295.915 136.3 294.628 134.766 293.713 132.985Z" fill="#BA816C"/>
<path d="M332.262 96.8696C332.904 95.6669 333.603 94.4996 334.356 93.3724C334.831 92.668 335.43 92.0961 335.913 91.4249C336.637 90.4138 336.356 88.4332 336.411 87.1652C336.409 85.7584 336.724 84.3716 337.329 83.1211C337.439 82.8858 337.616 82.6941 337.835 82.5741C337.982 82.5249 338.138 82.5189 338.288 82.5569C338.437 82.5948 338.574 82.6752 338.684 82.7896C338.905 83.0236 339.075 83.3065 339.182 83.6183C339.742 84.9617 340.084 86.3963 340.194 87.8614C340.264 88.947 340.568 89.8089 341.603 89.3614C342.59 88.9438 343.615 88.6383 344.662 88.4498C345.604 88.2757 348.555 87.621 348.913 89.1127C349.567 91.7978 345.511 101.635 345.254 102.372C344.997 103.11 333.881 106.988 333.881 106.988L332.262 96.8696Z" fill="#BA816C"/>
<path d="M194.165 365.102C193.526 365.741 192.849 366.544 192.982 367.464C193.114 368.384 193.916 368.923 194.679 369.312C199.972 372.014 206.2 371.558 211.96 370.299C214.093 369.834 216.327 369.188 217.822 367.497C218.654 366.494 219.251 365.296 219.566 364C220.028 362.312 220.184 360.546 220.025 358.796C220.036 358.451 219.971 358.108 219.836 357.795C219.701 357.481 219.499 357.205 219.246 356.989C218.909 356.819 218.537 356.742 218.164 356.766C214.327 356.674 208.784 355.324 205.258 356.956C201.128 358.936 197.37 361.696 194.165 365.102Z" fill="#606161"/>
<path d="M257.515 360.296C256.614 360.052 255.669 360.066 254.775 360.337C254.236 360.611 253.775 361.031 253.438 361.554C253.1 362.078 252.898 362.687 252.852 363.321C252.773 364.591 252.91 365.865 253.257 367.083C253.407 368.131 253.792 369.126 254.378 369.984C255.199 370.846 256.257 371.409 257.398 371.591C259.548 372.047 261.731 372.305 263.922 372.362L277.7 373.149C278.723 373.337 279.775 373.128 280.666 372.561C281.134 372.075 281.435 371.436 281.521 370.746C281.607 370.057 281.473 369.356 281.141 368.757C280.444 367.579 279.484 366.602 278.346 365.915C275.7 364.05 271.955 360.942 268.764 360.428C267.246 360.163 265.354 360.752 263.797 360.76C261.695 360.775 259.595 360.62 257.515 360.296Z" fill="#606161"/>
<path d="M194.165 365.102C193.526 365.741 192.849 366.544 192.982 367.464C193.114 368.384 193.916 368.923 194.679 369.312C199.972 372.014 206.2 371.558 211.96 370.299C214.093 369.834 216.327 369.188 217.822 367.497C218.654 366.494 219.251 365.296 219.566 364C220.028 362.312 220.184 360.546 220.025 358.796C220.036 358.451 219.971 358.108 219.836 357.795C219.701 357.481 219.499 357.205 219.246 356.989C218.909 356.819 218.537 356.742 218.164 356.766C214.327 356.674 208.784 355.324 205.258 356.956C201.128 358.936 197.37 361.696 194.165 365.102Z" fill="url(#paint2_linear_612_12359)"/>
<path d="M257.515 360.296C256.614 360.052 255.669 360.066 254.775 360.337C254.236 360.611 253.775 361.031 253.438 361.554C253.1 362.078 252.898 362.687 252.852 363.321C252.773 364.591 252.91 365.865 253.257 367.083C253.407 368.131 253.792 369.126 254.378 369.984C255.199 370.846 256.257 371.409 257.398 371.591C259.548 372.047 261.731 372.305 263.922 372.362L277.7 373.149C278.723 373.337 279.775 373.128 280.666 372.561C281.134 372.075 281.435 371.436 281.521 370.746C281.607 370.057 281.473 369.356 281.141 368.757C280.444 367.579 279.484 366.602 278.346 365.915C275.7 364.05 271.955 360.942 268.764 360.428C267.246 360.163 265.354 360.752 263.797 360.76C261.695 360.775 259.595 360.62 257.515 360.296Z" fill="url(#paint3_linear_612_12359)"/>
<path d="M379.607 159.074C379.55 158.729 379.559 158.375 379.633 158.033C379.706 157.692 379.843 157.369 380.035 157.085C381.888 154.855 383.303 152.253 384.197 149.432C385.092 146.611 385.447 143.629 385.243 140.66C385.003 135.456 382.87 130.557 379.295 126.999C375.721 123.441 370.986 121.504 366.093 121.599L322.593 122.353C322.588 121.913 322.612 121.472 322.663 121.035C323.302 116.552 323.901 112.077 324.586 107.618C325.551 101.704 325.326 95.6398 323.924 89.8256C321.994 81.8036 318.958 74.2373 315.681 66.7457C314.015 62.917 311.656 60.0247 308.005 58.2844C300.68 54.7955 293.542 54.6546 286.691 59.5109C282.309 62.6103 279.779 66.6876 280.121 72.6379C280.479 79.2677 280.323 85.8229 280.495 92.4361C280.611 94.0436 280.385 95.6583 279.833 97.1598C279.234 98.5935 278.276 99.7537 277.692 101.229C277.156 102.397 276.561 103.534 275.91 104.635C274.711 106.972 273.504 109.292 272.235 111.58C268.507 118.383 264.988 125.336 260.38 131.544C258.542 134.03 256.557 136.4 254.572 138.778C254.035 139.425 253.42 139.823 252.517 139.085C250.576 137.603 248.216 136.874 245.83 137.021C228.788 137.298 211.75 137.588 194.718 137.892C187.883 138.008 183.126 143.61 183.671 150.878C184.208 157.507 184.816 164.137 185.4 170.701C185.906 176.726 186.365 182.75 186.956 188.75C187.595 195.969 188.303 203.187 188.965 210.397C189.432 215.303 189.806 220.2 190.288 225.106C190.454 225.82 190.716 226.504 191.067 227.137L190.397 227.253C190.74 229.739 190.662 232.474 191.526 234.778C194.134 241.664 199.17 242.75 204.83 242.162C204.946 242.162 205.009 241.797 205.094 241.598C205.833 241.87 206.598 242.053 207.375 242.145C220.905 241.93 234.457 241.722 247.987 241.432C250.04 241.481 252.059 240.863 253.775 239.661C255.491 238.459 256.822 236.73 257.593 234.703C258.193 232.999 258.679 231.251 259.048 229.474C259.658 229.74 260.251 230.047 260.823 230.394C262.583 231.488 264.381 232.656 266.023 233.858C266.369 234.13 266.74 234.366 267.129 234.562C267.925 234.84 268.747 235.027 269.581 235.117C270.528 235.353 271.496 235.478 272.469 235.49C283.134 235.374 293.775 235.167 304.385 234.985C317.455 234.753 330.596 234.57 343.697 234.256L347.908 234.148C349.835 234.092 351.721 233.549 353.412 232.565C356.355 230.721 359.13 228.591 361.702 226.2C367.93 220.399 370.701 213.198 368.662 204.322C368.626 203.564 368.841 202.816 369.269 202.209C370.328 200.551 371.519 198.993 372.546 197.319C372.795 196.922 372.624 196.242 372.632 195.703C373.652 196.317 373.566 195.223 373.722 194.783C375.356 190.482 375.279 186.057 374.368 181.607C374.303 181.263 374.306 180.91 374.375 180.567C374.445 180.225 374.58 179.902 374.773 179.618C380.012 173.75 381.327 166.839 379.607 159.074ZM246.547 159.728L247.59 227.41C247.629 229.706 247.629 229.706 245.426 229.739C231.499 229.988 217.581 230.203 203.662 230.493C202.105 230.543 201.638 230.062 201.498 228.455C200.896 220.72 200.234 212.985 199.513 205.25C198.906 198.471 198.205 191.692 197.621 184.913C197.092 179.112 196.656 173.311 196.158 167.452C195.706 162.14 195.255 156.82 194.718 151.508C194.554 149.999 195.037 149.668 196.383 149.676C207.897 149.519 219.387 149.295 230.9 149.096C234.792 149.03 238.684 148.98 242.623 148.988C242.885 148.968 243.149 148.996 243.402 149.071C243.86 149.262 244.246 149.608 244.499 150.057C245.357 151.087 245.9 152.37 246.056 153.737C246.076 154.159 246.147 154.577 246.266 154.98C246.336 155.32 246.406 155.635 246.484 155.999C246.594 157.241 246.62 158.491 246.562 159.737L246.547 159.728ZM368.584 152.27C367.907 152.726 367.152 153.057 366.498 153.53C365.065 154.557 364.941 155.56 366.202 156.786C369.767 160.358 371.433 167.336 366.435 172.168C364.84 173.659 363.099 174.964 361.243 176.063C359.429 177.173 359.196 178.325 360.838 179.659C361.672 180.284 362.375 181.086 362.903 182.014C363.431 182.943 363.772 183.978 363.905 185.054C364.014 185.883 364.232 186.712 364.404 187.54C363.524 193.225 360.044 196.532 355.381 198.786C353.575 199.615 353.412 200.56 354.875 201.894C356.549 203.299 357.74 205.254 358.262 207.455C359.274 211.855 357.304 214.913 354.525 217.681C353.934 218.278 353.28 218.775 352.688 219.339C350.065 221.825 347.099 222.736 343.518 222.745C328.198 222.819 312.878 223.184 297.535 223.474C297.037 223.474 296.531 223.615 296.025 223.673C295.471 223.581 294.912 223.525 294.351 223.507L285.601 223.656L281.18 223.739C279.872 223.896 278.551 223.873 277.249 223.673C276.991 223.623 276.728 223.623 276.47 223.673C275.588 223.857 274.697 223.985 273.8 224.054C272.979 224.036 272.168 223.865 271.402 223.548C269.913 222.839 268.485 221.99 267.137 221.013C265.837 220.184 264.583 219.272 263.244 218.526C262.728 218.199 262.14 218.021 261.54 218.013C259.679 218.013 257.842 218.013 255.989 218.087C254.868 218.153 254.541 217.747 254.518 216.554C254.518 210.007 254.339 203.435 254.238 196.897C254.028 183.032 253.841 169.184 253.576 155.32C253.576 153.704 253.833 152.701 255.335 151.922C261.119 148.914 265.214 143.933 268.966 138.521C273.878 131.272 278.35 123.696 282.355 115.839L284.901 111.033C286.948 107.096 288.972 103.151 290.98 99.157C291.338 98.3459 291.519 97.4592 291.51 96.5631C291.5 96.2048 291.439 95.85 291.331 95.5107C291.279 95.1404 291.258 94.766 291.268 94.3919L291.23 91.7068C291.23 89.9278 291.209 88.1461 291.167 86.3616L291.004 75.6379C290.965 74.4196 290.941 73.2014 290.926 71.9998C290.897 71.5553 290.971 71.1101 291.14 70.7028C291.31 70.2955 291.57 69.9385 291.899 69.6628C295.877 65.9335 301.054 66.7954 304.743 69.5385C305.763 70.3009 306.137 72.0826 306.752 73.4335C309.556 79.6517 311.83 86.1251 313.548 92.7759C314.793 97.7482 314.505 102.721 313.711 107.693C312.471 115.361 311.22 123.035 309.959 130.715C309.788 131.767 309.671 132.845 309.531 134.03C309.856 134.078 310.184 134.102 310.512 134.104C329 133.781 347.511 133.532 366.015 133.118C371.565 132.969 375.356 138.223 374.461 143.834C373.831 147.729 371.643 150.331 368.599 152.287L368.584 152.27Z" fill="#68E1FD"/>
<path opacity="0.54" d="M379.335 157.325C379.274 156.98 379.281 156.626 379.353 156.284C379.425 155.942 379.562 155.62 379.755 155.336C381.608 153.104 383.024 150.501 383.919 147.679C384.815 144.857 385.172 141.873 384.971 138.902C384.737 133.692 382.607 128.784 379.032 125.217C375.458 121.65 370.719 119.704 365.821 119.792L322.305 120.562C322.31 120.117 322.336 119.671 322.383 119.228C323.029 114.745 323.613 110.286 324.314 105.828C325.276 99.9105 325.048 93.8432 323.644 88.0268C321.714 80.0048 318.67 72.4219 315.408 64.9303C313.735 61.1016 311.392 58.2176 307.733 56.4939C300.392 52.9884 293.269 52.8392 286.403 57.7121C282.021 60.8032 279.506 64.8723 279.841 70.8474C280.207 77.4191 280.036 84.0158 280.207 90.6373C280.325 92.2428 280.107 93.8562 279.569 95.361C278.954 96.7947 278.012 97.9466 277.412 99.4383C276.872 100.599 276.277 101.73 275.63 102.828C274.431 105.173 273.224 107.494 271.948 109.781C268.234 116.585 264.716 123.538 260.107 129.745C258.263 132.231 256.285 134.593 254.3 136.971C254.199 137.155 254.059 137.313 253.892 137.431C253.726 137.549 253.536 137.626 253.337 137.654C253.138 137.683 252.936 137.663 252.746 137.597C252.555 137.53 252.381 137.418 252.237 137.27C250.295 135.803 247.944 135.079 245.566 135.214C228.508 135.485 211.46 135.761 194.422 136.043C187.611 136.167 182.839 141.778 183.399 149.029C183.929 155.659 184.543 162.289 185.127 168.919C185.633 174.918 186.077 180.952 186.638 186.952C187.276 194.178 187.976 201.371 188.646 208.59C189.121 213.496 189.487 218.393 189.985 223.299C190.153 224.017 190.415 224.706 190.763 225.346L190.094 225.437C190.429 227.998 190.374 230.667 191.238 232.987C193.83 239.849 198.859 240.951 204.526 240.354C204.635 240.354 204.69 239.998 204.806 239.791C205.535 240.069 206.294 240.249 207.064 240.33C220.601 240.122 234.17 239.915 247.683 239.642C249.737 239.687 251.756 239.067 253.47 237.862C255.185 236.657 256.514 234.925 257.282 232.896C257.898 231.197 258.385 229.449 258.737 227.667C259.346 227.94 259.941 228.247 260.52 228.587C262.279 229.689 264.07 230.849 265.712 232.067C266.069 232.324 266.444 232.551 266.833 232.747C267.629 233.027 268.451 233.216 269.285 233.31C270.23 233.548 271.195 233.678 272.166 233.7C282.823 233.584 293.464 233.377 304.129 233.194C317.191 232.954 330.308 232.78 343.433 232.448L347.644 232.366C349.569 232.297 351.452 231.747 353.14 230.758C356.071 228.937 358.836 226.829 361.399 224.46C367.627 218.659 370.414 211.473 368.405 202.59C368.364 201.829 368.582 201.079 369.02 200.476C370.055 198.819 371.254 197.269 372.29 195.57C372.539 195.189 372.375 194.501 372.375 193.971C373.403 194.592 373.294 193.49 373.457 193.051C374.951 188.839 375.177 184.237 374.103 179.883C374.042 179.538 374.047 179.184 374.12 178.842C374.192 178.499 374.329 178.177 374.524 177.894C379.724 171.977 381.032 165.082 379.335 157.325ZM245.146 227.998C231.219 228.23 217.316 228.437 203.382 228.736C201.825 228.794 201.35 228.288 201.21 226.689C200.618 218.957 199.949 211.266 199.225 203.534C198.641 196.764 197.917 189.985 197.326 183.214C196.827 177.355 196.376 171.562 195.878 165.736C195.426 160.416 194.982 155.095 194.453 149.775C194.282 148.292 194.757 147.968 196.103 147.968C207.624 147.786 219.099 147.579 230.628 147.372C234.52 147.314 238.412 147.256 242.351 147.281C242.611 147.242 242.877 147.262 243.129 147.339C243.576 147.545 243.956 147.888 244.219 148.325C245.095 149.346 245.653 150.632 245.815 152.004C245.834 152.428 245.899 152.848 246.01 153.256C246.088 153.612 246.173 153.91 246.228 154.292C246.343 155.517 246.362 156.751 246.282 157.979L247.349 225.645C247.349 227.932 247.349 227.932 245.146 227.998ZM374.158 142.051C373.52 145.971 371.34 148.557 368.296 150.521C367.627 150.968 366.872 151.292 366.202 151.772C364.778 152.808 364.645 153.819 365.922 155.037C369.472 158.601 371.145 165.587 366.148 170.402C364.55 171.897 362.809 173.211 360.955 174.322C359.142 175.424 358.916 176.584 360.566 177.918C361.396 178.542 362.094 179.342 362.618 180.268C363.142 181.193 363.48 182.225 363.61 183.297C363.719 184.126 363.945 184.996 364.108 185.783C363.244 191.485 359.757 194.783 355.094 197.045C353.28 197.874 353.116 198.794 354.595 200.137C356.265 201.539 357.451 203.492 357.966 205.689C358.978 210.114 357.024 213.148 354.23 215.94C353.646 216.537 353 217.009 352.416 217.598C349.792 220.084 346.803 220.987 343.23 220.987C327.902 221.078 312.606 221.435 297.255 221.733C296.749 221.733 296.251 221.874 295.745 221.907C295.239 221.94 294.6 221.758 294.071 221.758L285.306 221.907L280.9 221.998C279.589 222.159 278.264 222.129 276.961 221.907C276.703 221.865 276.44 221.865 276.182 221.907C275.298 222.095 274.404 222.226 273.505 222.297C272.691 222.278 271.887 222.107 271.13 221.791C269.643 221.091 268.213 220.26 266.857 219.305C265.549 218.476 264.288 217.548 262.964 216.819C262.459 216.473 261.868 216.297 261.267 216.313C259.422 216.255 257.577 216.255 255.709 216.371C254.588 216.429 254.254 216.015 254.254 214.822C254.254 208.291 254.059 201.719 253.981 195.181C253.755 181.3 253.561 167.452 253.312 153.604C253.312 152.004 253.561 150.993 255.063 150.189C260.847 147.189 264.949 142.225 268.686 136.789C273.611 129.548 278.089 121.974 282.091 114.115C282.924 112.507 283.788 110.933 284.629 109.325C286.668 105.372 288.708 101.419 290.716 97.4411C291.07 96.6316 291.251 95.7484 291.245 94.8555C291.235 94.4925 291.177 94.1327 291.074 93.7864C291.021 93.4218 290.995 93.0532 290.996 92.6842V89.9826C290.996 88.2008 290.996 86.4191 290.942 84.629L290.771 73.9302C290.716 72.712 290.716 71.444 290.693 70.2755C290.642 69.8326 290.698 69.3831 290.856 68.9697C291.014 68.5563 291.269 68.1928 291.596 67.9137C295.558 64.1679 300.75 65.0297 304.44 67.7645C305.468 68.5352 305.833 70.317 306.448 71.6512C309.26 77.8593 311.539 84.3247 313.26 90.9688C314.513 95.9411 314.21 100.913 313.423 105.886C312.17 113.552 310.917 121.192 309.656 128.891C309.492 129.96 309.375 131.029 309.235 132.206C309.56 132.26 309.888 132.288 310.216 132.289C328.696 131.966 347.2 131.725 365.712 131.311C366.975 131.279 368.23 131.551 369.381 132.106C370.533 132.66 371.552 133.484 372.364 134.516C373.175 135.548 373.758 136.761 374.068 138.066C374.379 139.37 374.41 140.733 374.158 142.051Z" fill="url(#paint4_linear_612_12359)"/>
<path d="M245.044 230.343C231.118 230.584 217.215 230.791 203.288 231.089C201.731 231.147 201.249 230.642 201.109 229.034C200.525 221.31 199.855 213.612 199.124 205.888C198.54 199.109 197.816 192.338 197.224 185.559C196.726 179.708 196.282 173.916 195.776 168.09C195.333 162.769 194.881 157.449 194.352 152.128C194.188 150.645 194.663 150.314 196.002 150.314C207.531 150.14 218.997 149.932 230.526 149.725C234.418 149.659 238.311 149.601 242.257 149.634C242.517 149.586 242.785 149.606 243.036 149.692C243.481 149.898 243.859 150.238 244.126 150.67C245.001 151.696 245.558 152.983 245.722 154.358C245.74 154.782 245.805 155.202 245.916 155.609C246.007 155.95 246.08 156.296 246.134 156.645C246.256 157.87 246.277 159.104 246.196 160.333L247.255 227.998C247.271 230.261 247.271 230.261 245.044 230.343Z" fill="white"/>
<path d="M188.591 165.653C194.912 168.686 201.352 171.421 207.912 173.858C209.558 174.543 211.279 175 213.034 175.217C216.989 175.523 220.718 173.468 224.213 171.479C225.988 170.46 228.043 168.894 227.739 166.772C227.573 166.076 227.223 165.444 226.73 164.952C226.238 164.46 225.624 164.129 224.96 163.996C223.634 163.756 222.286 163.678 220.943 163.764C216.117 163.681 211.602 161.419 207.359 158.908C202.549 156.048 197.862 152.734 194.367 148.209C193.936 147.509 193.344 146.939 192.647 146.551C192.022 146.339 191.353 146.316 190.716 146.485C181.289 148.366 180.168 161.626 188.591 165.653Z" fill="url(#paint5_linear_612_12359)"/>
<path d="M374.461 143.858C373.815 147.778 371.643 150.364 368.599 152.328C367.93 152.767 367.175 153.099 366.505 153.571C365.081 154.615 364.948 155.626 366.225 156.844C369.775 160.408 371.449 167.394 366.451 172.209C364.851 173.701 363.111 175.015 361.259 176.129C359.445 177.231 359.219 178.383 360.869 179.725C361.7 180.347 362.399 181.147 362.922 182.073C363.445 182.999 363.78 184.032 363.905 185.104C364.022 185.933 364.24 186.761 364.411 187.59C363.547 193.3 360.06 196.598 355.397 198.852C353.583 199.681 353.412 200.609 354.891 201.943C356.562 203.35 357.749 205.305 358.269 207.504C359.274 211.93 357.32 214.963 354.533 217.756C353.941 218.352 353.303 218.825 352.711 219.413C350.088 221.899 347.106 222.794 343.533 222.794C328.206 222.885 312.909 223.242 297.558 223.54C297.052 223.54 296.554 223.689 296.048 223.722C295.493 223.641 294.934 223.591 294.374 223.573C291.44 223.631 288.536 223.656 285.609 223.722L281.195 223.805C279.888 223.973 278.564 223.945 277.264 223.722C277.006 223.676 276.743 223.676 276.486 223.722C275.599 223.908 274.702 224.036 273.8 224.104C273 224.082 272.209 223.911 271.465 223.598C269.971 222.895 268.541 222.049 267.191 221.07C265.875 220.242 264.622 219.322 263.299 218.584C262.787 218.247 262.196 218.071 261.594 218.079C259.757 218.021 257.912 218.021 256.044 218.137C254.923 218.203 254.588 217.78 254.588 216.595C254.588 210.057 254.393 203.493 254.308 196.955C254.09 183.076 253.867 169.217 253.638 155.377C253.638 153.77 253.887 152.759 255.397 151.963C261.174 148.955 265.284 143.991 269.02 138.554C273.946 131.316 278.422 123.742 282.417 115.881C283.258 114.281 284.122 112.698 284.963 111.099C286.995 107.146 289.034 103.193 291.043 99.2066C291.4 98.3984 291.581 97.5144 291.572 96.621C291.564 96.2583 291.509 95.8986 291.408 95.5519C291.353 95.1903 291.324 94.8245 291.323 94.458V91.7481C291.323 89.9663 291.323 88.1846 291.261 86.4028L291.097 75.704C291.043 74.4858 291.043 73.2178 291.011 72.0493C290.98 71.6061 291.053 71.1615 291.224 70.7562C291.396 70.3508 291.66 69.9977 291.992 69.7289C295.955 65.9831 301.147 66.8449 304.829 69.5797C305.864 70.3504 306.23 72.1405 306.837 73.4747C309.614 79.6806 311.86 86.1404 313.548 92.7757C314.809 97.7481 314.497 102.72 313.719 107.693C312.465 115.358 311.204 122.991 309.951 130.69C309.78 131.759 309.671 132.828 309.531 134.005C309.855 134.061 310.183 134.092 310.512 134.096C328.984 133.773 347.496 133.532 365.999 133.118C367.264 133.083 368.52 133.353 369.674 133.907C370.828 134.461 371.849 135.284 372.662 136.317C373.475 137.349 374.059 138.563 374.371 139.869C374.682 141.174 374.713 142.538 374.461 143.858Z" fill="white"/>
<path d="M188.498 142.185L213.587 157.773L218.764 170.079L180.457 154.01L188.498 142.185Z" fill="#BA816C"/>
<path d="M213.579 157.773C214.696 156.752 215.894 155.837 217.16 155.038C218.328 154.474 230.666 159.753 230.721 161.171C230.775 162.588 230.114 167.709 228.783 168.19C227.451 168.671 218.764 170.079 218.764 170.079C218.764 170.079 210.006 160.508 213.579 157.773Z" fill="#BA816C"/>
<path d="M213.432 96.4961C213.432 96.4961 203.133 100.64 200.369 107.966C197.606 115.292 174.26 148.755 178.767 154.507C181.048 157.416 186.178 159.777 186.178 159.777L201.225 149.758L198.01 146.443L212.887 124.01C212.887 124.01 217.176 102.363 213.432 96.4961Z" fill="#68E1FD"/>
<path d="M210.123 206.129C216.841 206.261 223.637 206.311 230.199 204.753C236.762 203.195 243.16 199.847 247.364 194.261L249.878 198.19C271.861 204.376 294.648 206.68 317.331 205.01C320.532 204.841 323.714 204.386 326.844 203.651C332.16 202.275 337.065 199.507 341.907 196.814L359.546 186.919C362.193 187.449 363.205 191.063 362.816 193.847C362.426 196.632 361.189 199.433 361.469 202.275C361.71 204.712 363.026 206.858 363.602 209.236C364.614 213.48 363.01 218.096 360.255 221.344C357.499 224.593 353.716 226.681 349.862 228.231C339.883 232.25 329.054 233.145 318.39 233.626C309.282 234.032 300.166 234.164 291.058 234.305C285.703 234.38 280.246 234.446 275.124 232.781C270.453 231.264 266.257 228.363 261.695 226.466C260.35 225.789 258.855 225.519 257.375 225.687C256.294 225.962 255.274 226.457 254.37 227.145C249.17 230.667 244.367 234.977 238.669 237.496C230.565 241.076 221.465 240.695 212.7 240.256C205.694 239.908 197.45 238.83 193.916 232.35C192.918 230.284 192.225 228.068 191.861 225.778C191.012 221.709 185.026 204.231 189.432 202.366C191.549 201.48 196.36 204.596 198.618 205.093C202.416 205.806 206.267 206.153 210.123 206.129Z" fill="url(#paint6_linear_612_12359)"/>
</g>
<defs>
<linearGradient id="paint0_linear_612_12359" x1="243.954" y1="106.209" x2="260.541" y2="230.07" gradientUnits="userSpaceOnUse">
<stop stop-color="#010101" stop-opacity="0"/>
<stop offset="0.95" stop-color="#010101" stop-opacity="0.44"/>
</linearGradient>
<linearGradient id="paint1_linear_612_12359" x1="241.386" y1="308.608" x2="242.277" y2="234.14" gradientUnits="userSpaceOnUse">
<stop stop-color="#010101" stop-opacity="0"/>
<stop offset="0.95" stop-color="#010101" stop-opacity="0.44"/>
</linearGradient>
<linearGradient id="paint2_linear_612_12359" x1="192.966" y1="363.71" x2="220.087" y2="363.71" gradientUnits="userSpaceOnUse">
<stop stop-color="#010101" stop-opacity="0"/>
<stop offset="0.95" stop-color="#010101" stop-opacity="0.44"/>
</linearGradient>
<linearGradient id="paint3_linear_612_12359" x1="252.805" y1="366.652" x2="281.53" y2="366.652" gradientUnits="userSpaceOnUse">
<stop stop-color="#010101" stop-opacity="0"/>
<stop offset="0.95" stop-color="#010101" stop-opacity="0.44"/>
</linearGradient>
<linearGradient id="paint4_linear_612_12359" x1="282.97" y1="271.133" x2="285.944" y2="-3.87486" gradientUnits="userSpaceOnUse">
<stop stop-color="white" stop-opacity="0"/>
<stop offset="0.15" stop-color="white" stop-opacity="0.22"/>
<stop offset="0.32" stop-color="white" stop-opacity="0.45"/>
<stop offset="0.48" stop-color="white" stop-opacity="0.65"/>
<stop offset="0.64" stop-color="white" stop-opacity="0.8"/>
<stop offset="0.78" stop-color="white" stop-opacity="0.91"/>
<stop offset="0.91" stop-color="white" stop-opacity="0.98"/>
<stop offset="1" stop-color="white"/>
</linearGradient>
<linearGradient id="paint5_linear_612_12359" x1="202.588" y1="182.269" x2="217.987" y2="79.6249" gradientUnits="userSpaceOnUse">
<stop stop-color="#010101" stop-opacity="0"/>
<stop offset="0.95" stop-color="#010101"/>
</linearGradient>
<linearGradient id="paint6_linear_612_12359" x1="276.968" y1="151.549" x2="268.958" y2="521.363" gradientUnits="userSpaceOnUse">
<stop stop-color="#010101" stop-opacity="0"/>
<stop offset="0.95" stop-color="#010101" stop-opacity="0.44"/>
</linearGradient>
<clipPath id="clip0_612_12359">
<rect width="506" height="406" fill="white"/>
</clipPath>
</defs>
</svg>
