<svg width="48" height="48" viewBox="0 0 48 48" fill="none" xmlns="http://www.w3.org/2000/svg">
<circle cx="24" cy="24" r="24" fill="#012063"/>
<path d="M24.0351 36.432C22.8831 36.432 21.7951 36.208 20.7711 35.76C19.7471 35.312 18.8565 34.6773 18.0991 33.856C17.3525 33.0347 16.8138 32.064 16.4831 30.944L20.2111 29.936C20.4778 30.8533 20.9631 31.5627 21.6671 32.064C22.3818 32.5547 23.1658 32.7947 24.0191 32.784C24.7765 32.784 25.4538 32.608 26.0511 32.256C26.6485 31.904 27.1178 31.4293 27.4591 30.832C27.8005 30.224 27.9711 29.5467 27.9711 28.8C27.9711 27.6587 27.6031 26.704 26.8671 25.936C26.1311 25.168 25.1818 24.784 24.0191 24.784C23.6671 24.784 23.3205 24.832 22.9791 24.928C22.6485 25.024 22.3285 25.1573 22.0191 25.328L20.2591 22.288L28.0031 15.664L28.3391 16.592H17.3791V12.96H31.5071V16.608L25.2831 22.592L25.2511 21.456C26.6485 21.552 27.8378 21.9413 28.8191 22.624C29.8111 23.3067 30.5685 24.1867 31.0911 25.264C31.6245 26.3413 31.8911 27.52 31.8911 28.8C31.8911 30.2507 31.5338 31.552 30.8191 32.704C30.1151 33.856 29.1658 34.768 27.9711 35.44C26.7871 36.1013 25.4751 36.432 24.0351 36.432Z" fill="#EAF1FF"/>
</svg>
