<svg width="48" height="48" viewBox="0 0 48 48" fill="none" xmlns="http://www.w3.org/2000/svg">
<circle cx="24" cy="24" r="24" fill="#012063"/>
<path d="M16.0688 35.968V32.608L25.9248 23.824C26.6928 23.1413 27.2261 22.496 27.5248 21.888C27.8234 21.28 27.9728 20.6933 27.9728 20.128C27.9728 19.36 27.8074 18.6773 27.4768 18.08C27.1461 17.472 26.6874 16.992 26.1008 16.64C25.5248 16.288 24.8581 16.112 24.1008 16.112C23.3008 16.112 22.5914 16.2987 21.9728 16.672C21.3648 17.0347 20.8901 17.52 20.5488 18.128C20.2074 18.736 20.0474 19.392 20.0688 20.096H16.1008C16.1008 18.56 16.4421 17.2213 17.1248 16.08C17.8181 14.9387 18.7674 14.0533 19.9728 13.424C21.1888 12.7947 22.5914 12.48 24.1808 12.48C25.6528 12.48 26.9754 12.8107 28.1488 13.472C29.3221 14.1227 30.2448 15.0293 30.9167 16.192C31.5888 17.344 31.9248 18.672 31.9248 20.176C31.9248 21.2747 31.7754 22.1973 31.4768 22.944C31.1781 23.6907 30.7301 24.3787 30.1328 25.008C29.5461 25.6373 28.8154 26.336 27.9408 27.104L20.9488 33.296L20.5968 32.336H31.9248V35.968H16.0688Z" fill="#EAF1FF"/>
</svg>
