<svg width="157" height="42" viewBox="0 0 157 42" fill="none" xmlns="http://www.w3.org/2000/svg">
<path d="M22 22.5299C-12.279 22.5299 24.4293 41.5 12.2791 41.5C0.128806 41.5 0 36.0485 0 22.5299C0 9.01124 0.128804 0.5 12.2791 0.5C24.4293 0.5 -12.7907 22.5299 22 22.5299Z" fill="#012063"/>
<path d="M14 22.5299C46.7209 22.5299 11.6811 41.5 23.2791 41.5C34.877 41.5 35 36.0485 35 22.5299C35 9.01124 34.8771 0.5 23.2791 0.5C11.6811 0.5 47.2093 22.5299 14 22.5299Z" fill="#126BC5"/>
<path d="M51.0612 30.36C49.8212 30.36 48.7012 30.148 47.7012 29.724C46.7092 29.292 45.8892 28.68 45.2412 27.888C44.6012 27.088 44.1852 26.14 43.9932 25.044L46.6092 24.648C46.8732 25.704 47.4252 26.528 48.2652 27.12C49.1052 27.704 50.0852 27.996 51.2052 27.996C51.9012 27.996 52.5412 27.888 53.1252 27.672C53.7092 27.448 54.1772 27.132 54.5292 26.724C54.8892 26.308 55.0692 25.812 55.0692 25.236C55.0692 24.924 55.0132 24.648 54.9012 24.408C54.7972 24.168 54.6492 23.96 54.4572 23.784C54.2732 23.6 54.0452 23.444 53.7732 23.316C53.5092 23.18 53.2172 23.064 52.8972 22.968L48.4692 21.66C48.0372 21.532 47.5972 21.368 47.1492 21.168C46.7012 20.96 46.2892 20.692 45.9132 20.364C45.5452 20.028 45.2452 19.616 45.0132 19.128C44.7812 18.632 44.6652 18.032 44.6652 17.328C44.6652 16.264 44.9372 15.364 45.4812 14.628C46.0332 13.884 46.7772 13.324 47.7132 12.948C48.6492 12.564 49.6972 12.372 50.8572 12.372C52.0252 12.388 53.0692 12.596 53.9892 12.996C54.9172 13.396 55.6852 13.972 56.2932 14.724C56.9092 15.468 57.3332 16.372 57.5652 17.436L54.8772 17.892C54.7572 17.244 54.5012 16.688 54.1092 16.224C53.7172 15.752 53.2372 15.392 52.6692 15.144C52.1012 14.888 51.4852 14.756 50.8212 14.748C50.1812 14.732 49.5932 14.828 49.0572 15.036C48.5292 15.244 48.1052 15.536 47.7852 15.912C47.4732 16.288 47.3172 16.72 47.3172 17.208C47.3172 17.688 47.4572 18.076 47.7372 18.372C48.0172 18.668 48.3612 18.904 48.7692 19.08C49.1852 19.248 49.5972 19.388 50.0052 19.5L53.1972 20.4C53.5972 20.512 54.0492 20.664 54.5532 20.856C55.0652 21.04 55.5572 21.3 56.0292 21.636C56.5092 21.972 56.9052 22.42 57.2172 22.98C57.5292 23.532 57.6852 24.228 57.6852 25.068C57.6852 25.94 57.5092 26.708 57.1572 27.372C56.8052 28.028 56.3212 28.58 55.7052 29.028C55.0972 29.468 54.3932 29.8 53.5932 30.024C52.7932 30.248 51.9492 30.36 51.0612 30.36ZM63.4338 30L58.4178 12.72H61.0458L64.6818 25.788L68.3178 12.732L70.9578 12.72L74.5938 25.788L78.2298 12.72H80.8698L75.8418 30H73.3458L69.6378 17.076L65.9298 30H63.4338ZM83.1231 30V12.72H85.6311V30H83.1231ZM89.2347 30V12.72H99.4707V15.228H91.7427V20.1H98.0307V22.62H91.7427V30H89.2347ZM105.941 30V15.084H100.193V12.72H114.197V15.084H108.449V30H105.941ZM116.118 30V12.72H123.102C123.27 12.72 123.478 12.728 123.726 12.744C123.974 12.752 124.21 12.776 124.434 12.816C125.394 12.968 126.194 13.296 126.833 13.8C127.482 14.304 127.966 14.94 128.286 15.708C128.606 16.476 128.766 17.324 128.766 18.252C128.766 19.188 128.606 20.04 128.286 20.808C127.966 21.576 127.482 22.212 126.833 22.716C126.194 23.22 125.394 23.548 124.434 23.7C124.21 23.732 123.97 23.756 123.714 23.772C123.466 23.788 123.262 23.796 123.102 23.796H118.626V30H116.118ZM118.626 21.42H123.006C123.166 21.42 123.342 21.412 123.534 21.396C123.734 21.38 123.922 21.352 124.098 21.312C124.61 21.192 125.022 20.972 125.334 20.652C125.646 20.324 125.87 19.948 126.006 19.524C126.142 19.1 126.21 18.676 126.21 18.252C126.21 17.828 126.142 17.408 126.006 16.992C125.87 16.568 125.646 16.196 125.334 15.876C125.022 15.548 124.61 15.324 124.098 15.204C123.922 15.156 123.734 15.124 123.534 15.108C123.342 15.092 123.166 15.084 123.006 15.084H118.626V21.42ZM128.769 30L134.385 12.72H137.997L143.613 30H141.009L135.837 14.232H136.485L131.373 30H128.769ZM131.685 26.1V23.748H140.709V26.1H131.685ZM148.5 30V22.86L142.656 12.72H145.584L149.772 19.98L153.96 12.72H156.888L151.044 22.86V30H148.5Z" fill="#012063"/>
</svg>
